<svg width="95" height="98" viewBox="0 0 95 98" fill="none" xmlns="http://www.w3.org/2000/svg">
<ellipse cx="47.5" cy="48.5215" rx="47.5" ry="48.5215" fill="#F3F4F6"/>
<path d="M26.2062 50.6468V43.7023H27.9268V50.6468H26.2062Z" fill="#292828"/>
<path d="M30.4253 50.7404C30.0954 50.7404 29.7959 50.6592 29.5269 50.497C29.263 50.3286 29.0549 50.0696 28.9026 49.7202C28.7504 49.3646 28.6742 48.9091 28.6742 48.3538V45.5273H30.3948V47.9888C30.3948 48.3507 30.443 48.6034 30.5395 48.7469C30.6359 48.8904 30.7679 48.9621 30.9354 48.9621C31.0369 48.9621 31.1308 48.9309 31.217 48.8685C31.3084 48.7999 31.382 48.6907 31.4378 48.541C31.4937 48.385 31.5216 48.1822 31.5216 47.9326V45.5273H33.2422V50.6468H31.6053V49.168L31.9327 49.5705C31.7855 49.9698 31.5749 50.2662 31.3008 50.4596C31.0318 50.6468 30.74 50.7404 30.4253 50.7404Z" fill="#292828"/>
<path d="M36.3045 50.7404C35.797 50.7404 35.3529 50.6249 34.9722 50.3941C34.5966 50.1632 34.3048 49.8481 34.0967 49.4488C33.8886 49.0432 33.7845 48.5878 33.7845 48.0824C33.7845 47.5645 33.8861 47.1059 34.0891 46.7066C34.2972 46.3072 34.5789 45.9953 34.9341 45.7706C35.2945 45.546 35.698 45.4337 36.1446 45.4337C36.5558 45.4337 36.9339 45.5336 37.279 45.7332C37.6292 45.9329 37.9084 46.2292 38.1165 46.6223C38.3296 47.0154 38.4362 47.5021 38.4362 48.0824C38.4362 48.1572 38.4337 48.2415 38.4286 48.3351C38.4235 48.4224 38.4185 48.5035 38.4134 48.5784H35.2082V47.5582H37.4998L36.8527 47.8297C36.8527 47.63 36.8222 47.4615 36.7613 47.3243C36.7055 47.1808 36.6268 47.0716 36.5253 46.9967C36.4238 46.9156 36.302 46.875 36.1599 46.875C36.0178 46.875 35.8934 46.9156 35.7868 46.9967C35.6853 47.0716 35.6066 47.1808 35.5508 47.3243C35.495 47.4615 35.4671 47.63 35.4671 47.8297V48.1479C35.4671 48.3663 35.5026 48.5534 35.5737 48.7094C35.6447 48.8654 35.7462 48.984 35.8782 49.0651C36.0101 49.1399 36.17 49.1774 36.3578 49.1774C36.5507 49.1774 36.708 49.1462 36.8298 49.0838C36.9567 49.0214 37.0887 48.9278 37.2257 48.803L38.1241 49.9168C37.9211 50.1851 37.6698 50.391 37.3704 50.5345C37.076 50.6717 36.7207 50.7404 36.3045 50.7404Z" fill="#292828"/>
<path d="M41.315 50.6468V44.0954H44.1623C44.8983 44.0954 45.4413 44.2576 45.7915 44.582C46.1418 44.9002 46.3169 45.3089 46.3169 45.8081C46.3169 46.1388 46.2407 46.4351 46.0885 46.6972C45.9413 46.953 45.7256 47.1558 45.4413 47.3056C45.1571 47.4553 44.8069 47.5302 44.3907 47.5302L44.543 47.0248C44.9592 47.0248 45.317 47.0965 45.6164 47.24C45.921 47.3835 46.1544 47.5926 46.3169 47.8671C46.4844 48.1354 46.5681 48.4598 46.5681 48.8405C46.5681 49.4082 46.3752 49.8512 45.9895 50.1695C45.6088 50.4877 45.0505 50.6468 44.3146 50.6468H41.315ZM43.0812 49.1025H44.1623C44.3603 49.1025 44.5075 49.0588 44.6039 48.9715C44.7054 48.8841 44.7561 48.7562 44.7561 48.5878C44.7561 48.4193 44.7054 48.2914 44.6039 48.204C44.5075 48.1167 44.3603 48.073 44.1623 48.073H42.9594V46.613H43.9187C44.1217 46.613 44.2689 46.5724 44.3603 46.4913C44.4567 46.404 44.5049 46.2823 44.5049 46.1263C44.5049 45.9641 44.4567 45.8424 44.3603 45.7613C44.2689 45.6802 44.1217 45.6396 43.9187 45.6396H43.0812V49.1025Z" fill="#292828"/>
<path d="M48.8858 50.7404C48.5559 50.7404 48.2565 50.6592 47.9875 50.497C47.7236 50.3286 47.5155 50.0696 47.3632 49.7202C47.2109 49.3646 47.1348 48.9091 47.1348 48.3538V45.5273H48.8554V47.9888C48.8554 48.3507 48.9036 48.6034 49 48.7469C49.0965 48.8904 49.2284 48.9621 49.3959 48.9621C49.4974 48.9621 49.5913 48.9309 49.6776 48.8685C49.769 48.7999 49.8426 48.6907 49.8984 48.541C49.9542 48.385 49.9822 48.1822 49.9822 47.9326V45.5273H51.7027V50.6468H50.0659V49.168L50.3933 49.5705C50.2461 49.9698 50.0354 50.2662 49.7614 50.4596C49.4924 50.6468 49.2005 50.7404 48.8858 50.7404Z" fill="#292828"/>
<path d="M54.4758 50.7404C53.9023 50.7404 53.4556 50.5719 53.1359 50.235C52.8161 49.8918 52.6562 49.3677 52.6562 48.6626V44.3761H54.3768V48.6439C54.3768 48.7999 54.4098 48.9216 54.4758 49.0089C54.5469 49.0963 54.6331 49.1399 54.7346 49.1399C54.8818 49.1399 55.0113 49.0931 55.1229 48.9996L55.534 50.4689C55.4021 50.5625 55.2422 50.6312 55.0544 50.6748C54.8717 50.7185 54.6788 50.7404 54.4758 50.7404ZM52.0852 47.3523V45.8081H55.2295V47.3523H52.0852Z" fill="#292828"/>
<path d="M57.9032 50.7404C57.3297 50.7404 56.8831 50.5719 56.5633 50.235C56.2435 49.8918 56.0837 49.3677 56.0837 48.6626V44.3761H57.8043V48.6439C57.8043 48.7999 57.8372 48.9216 57.9032 49.0089C57.9743 49.0963 58.0606 49.1399 58.1621 49.1399C58.3093 49.1399 58.4387 49.0931 58.5504 48.9996L58.9615 50.4689C58.8295 50.5625 58.6696 50.6312 58.4818 50.6748C58.2991 50.7185 58.1063 50.7404 57.9032 50.7404ZM55.5127 47.3523V45.8081H58.6569V47.3523H55.5127Z" fill="#292828"/>
<path d="M61.5828 50.7404C61.0752 50.7404 60.6311 50.6249 60.2505 50.3941C59.8749 50.1632 59.5831 49.8481 59.375 49.4488C59.1669 49.0432 59.0628 48.5878 59.0628 48.0824C59.0628 47.5645 59.1643 47.1059 59.3674 46.7066C59.5754 46.3072 59.8571 45.9953 60.2124 45.7706C60.5728 45.546 60.9763 45.4337 61.4229 45.4337C61.834 45.4337 62.2122 45.5336 62.5573 45.7332C62.9075 45.9329 63.1866 46.2292 63.3947 46.6223C63.6079 47.0154 63.7145 47.5021 63.7145 48.0824C63.7145 48.1572 63.712 48.2415 63.7069 48.3351C63.7018 48.4224 63.6967 48.5035 63.6917 48.5784H60.4865V47.5582H62.7781L62.1309 47.8297C62.1309 47.63 62.1005 47.4615 62.0396 47.3243C61.9838 47.1808 61.9051 47.0716 61.8036 46.9967C61.7021 46.9156 61.5803 46.875 61.4381 46.875C61.296 46.875 61.1717 46.9156 61.0651 46.9967C60.9636 47.0716 60.8849 47.1808 60.8291 47.3243C60.7733 47.4615 60.7453 47.63 60.7453 47.8297V48.1479C60.7453 48.3663 60.7809 48.5534 60.8519 48.7094C60.923 48.8654 61.0245 48.984 61.1565 49.0651C61.2884 49.1399 61.4483 49.1774 61.6361 49.1774C61.829 49.1774 61.9863 49.1462 62.1081 49.0838C62.235 49.0214 62.367 48.9278 62.504 48.803L63.4024 49.9168C63.1993 50.1851 62.9481 50.391 62.6487 50.5345C62.3543 50.6717 61.999 50.7404 61.5828 50.7404Z" fill="#292828"/>
<path d="M64.2575 50.6468V45.5273H65.8943V47.0716L65.6279 46.6317C65.7547 46.2324 65.9578 45.9329 66.2369 45.7332C66.5161 45.5336 66.851 45.4337 67.2419 45.4337V47.3056C67.1657 47.2931 67.0972 47.2837 67.0363 47.2775C66.9805 47.2712 66.9221 47.2681 66.8612 47.2681C66.6023 47.2681 66.3892 47.3523 66.2217 47.5208C66.0593 47.683 65.9781 47.9669 65.9781 48.3725V50.6468H64.2575Z" fill="#292828"/>
<path d="M68.0314 50.6468V45.78C68.0314 45.1186 68.1912 44.5914 68.511 44.1983C68.8358 43.8052 69.2952 43.6087 69.889 43.6087C70.0717 43.6087 70.2544 43.6305 70.4371 43.6742C70.6249 43.7116 70.7823 43.774 70.9092 43.8614L70.4981 45.3308C70.4422 45.2996 70.3813 45.2715 70.3153 45.2465C70.2494 45.2216 70.1808 45.2091 70.1098 45.2091C69.988 45.2091 69.889 45.2559 69.8129 45.3495C69.7367 45.4431 69.6987 45.5928 69.6987 45.7987V46.0421L69.752 46.9125V50.6468H68.0314ZM67.4604 47.3523V45.8081H70.6046V47.3523H67.4604ZM71.2746 50.6468V43.7023H72.9952V50.6468H71.2746Z" fill="#292828"/>
<path d="M73.7591 50.6468V45.5273H75.4797V50.6468H73.7591ZM74.6194 45.1155C74.3047 45.1155 74.0535 45.0126 73.8657 44.8067C73.6779 44.6008 73.584 44.3449 73.584 44.0392C73.584 43.7335 73.6779 43.4777 73.8657 43.2718C74.0535 43.0659 74.3047 42.9629 74.6194 42.9629C74.9341 42.9629 75.1853 43.0596 75.3731 43.253C75.5609 43.4465 75.6548 43.696 75.6548 44.0018C75.6548 44.3262 75.5609 44.5945 75.3731 44.8067C75.1853 45.0126 74.9341 45.1155 74.6194 45.1155Z" fill="#292828"/>
<path d="M78.5415 50.7404C78.034 50.7404 77.5899 50.6249 77.2092 50.3941C76.8336 50.1632 76.5418 49.8481 76.3337 49.4488C76.1256 49.0432 76.0216 48.5878 76.0216 48.0824C76.0216 47.5645 76.1231 47.1059 76.3261 46.7066C76.5342 46.3072 76.8159 45.9953 77.1712 45.7706C77.5315 45.546 77.935 45.4337 78.3817 45.4337C78.7928 45.4337 79.1709 45.5336 79.516 45.7332C79.8662 45.9329 80.1454 46.2292 80.3535 46.6223C80.5667 47.0154 80.6732 47.5021 80.6732 48.0824C80.6732 48.1572 80.6707 48.2415 80.6656 48.3351C80.6606 48.4224 80.6555 48.5035 80.6504 48.5784H77.4452V47.5582H79.7368L79.0897 47.8297C79.0897 47.63 79.0592 47.4615 78.9983 47.3243C78.9425 47.1808 78.8638 47.0716 78.7623 46.9967C78.6608 46.9156 78.539 46.875 78.3969 46.875C78.2548 46.875 78.1304 46.9156 78.0238 46.9967C77.9223 47.0716 77.8437 47.1808 77.7878 47.3243C77.732 47.4615 77.7041 47.63 77.7041 47.8297V48.1479C77.7041 48.3663 77.7396 48.5534 77.8107 48.7094C77.8817 48.8654 77.9832 48.984 78.1152 49.0651C78.2472 49.1399 78.407 49.1774 78.5948 49.1774C78.7877 49.1774 78.945 49.1462 79.0669 49.0838C79.1937 49.0214 79.3257 48.9278 79.4627 48.803L80.3611 49.9168C80.1581 50.1851 79.9069 50.391 79.6074 50.5345C79.313 50.6717 78.9577 50.7404 78.5415 50.7404Z" fill="#292828"/>
<path d="M82.8455 50.7404C82.4902 50.7404 82.14 50.6936 81.7948 50.6C81.4497 50.5064 81.1705 50.3847 80.9574 50.235L81.4294 48.8405C81.6273 48.984 81.8557 49.0963 82.1146 49.1774C82.3785 49.2585 82.6348 49.2991 82.8835 49.2991C83.0916 49.2991 83.2312 49.2772 83.3022 49.2335C83.3784 49.1899 83.4165 49.1306 83.4165 49.0557C83.4165 48.9808 83.3733 48.9278 83.287 48.8966C83.2007 48.8592 83.0865 48.8311 82.9444 48.8124C82.8023 48.7937 82.645 48.7718 82.4724 48.7469C82.3049 48.7157 82.1349 48.672 81.9623 48.6158C81.7898 48.5597 81.6324 48.4754 81.4903 48.3631C81.3482 48.2508 81.234 48.1011 81.1477 47.9139C81.0614 47.7205 81.0183 47.4771 81.0183 47.1839C81.0183 46.8594 81.097 46.5662 81.2543 46.3041C81.4167 46.0421 81.6553 45.833 81.9699 45.6771C82.2897 45.5148 82.683 45.4337 83.15 45.4337C83.4545 45.4337 83.759 45.468 84.0636 45.5367C84.3681 45.6053 84.6295 45.7114 84.8477 45.8549L84.3757 47.2494C84.1625 47.1059 83.9519 47.0092 83.7438 46.9593C83.5408 46.9031 83.3505 46.875 83.1728 46.875C82.9546 46.875 82.8049 46.9 82.7236 46.9499C82.6475 46.9998 82.6094 47.056 82.6094 47.1184C82.6094 47.1932 82.6526 47.2494 82.7389 47.2868C82.8252 47.3243 82.9394 47.3523 83.0815 47.3711C83.2236 47.3898 83.3784 47.4147 83.5459 47.4459C83.7184 47.4709 83.8885 47.5146 84.056 47.577C84.2285 47.6331 84.3859 47.7174 84.528 47.8297C84.6701 47.942 84.7843 48.0948 84.8706 48.2883C84.9569 48.4754 85 48.7157 85 49.0089C85 49.3146 84.9213 49.6017 84.764 49.87C84.6067 50.132 84.3681 50.3442 84.0483 50.5064C83.7286 50.6624 83.3276 50.7404 82.8455 50.7404Z" fill="#292828"/>
<path fill-rule="evenodd" clip-rule="evenodd" d="M13.5687 50.0892C13.8519 47.3576 18.1122 46.3339 20.2553 45.4726C21.6338 44.9185 25.7263 44.3587 25.8648 42.6916C26.0042 41.0133 18.9835 40.9735 17.9566 41.006C16.6846 41.0094 15.4848 41.1892 14.2683 41.5496C11.6033 42.4352 10.7052 44.3629 11.5978 46.8822C12.006 48.0346 12.924 49.0407 13.5687 50.0892ZM16.3372 49.3727C17.6836 48.6754 20.371 47.3931 21.9769 48.1353C22.958 48.5888 22.8371 49.3223 22.5083 50.207C22.0798 51.36 20.1809 54.0683 18.6102 54.0058C17.7888 53.9731 17.2936 52.0808 16.3034 51.5638C15.8393 51.3215 14.9369 50.9881 14.6156 50.8371C14.0945 50.5921 16.1707 49.459 16.3372 49.3727ZM16.6114 55.1574C14.9929 53.0409 12.0564 51.7583 10.9157 49.3737C10.5515 48.6123 9.70786 47.3286 10.103 46.4242C10.3141 45.9412 10.7717 47.0724 10.8638 47.4302C11.3352 49.2609 12.9055 50.6247 14.2248 51.9301C14.9602 52.6369 16.8415 53.9757 16.6114 55.1574ZM13.5687 50.0892C13.8519 47.3576 18.1122 46.3339 20.2553 45.4726C21.6338 44.9185 25.7263 44.3587 25.8648 42.6916C26.0042 41.0133 18.9835 40.9735 17.9566 41.006C16.6846 41.0094 15.4848 41.1892 14.2683 41.5496C11.6033 42.4352 10.7052 44.3629 11.5978 46.8822C12.006 48.0346 12.924 49.0407 13.5687 50.0892ZM16.3372 49.3727C17.6836 48.6754 20.371 47.3931 21.9769 48.1353C22.958 48.5888 22.8371 49.3223 22.5083 50.207C22.0798 51.36 20.1809 54.0683 18.6102 54.0058C17.7888 53.9731 17.2936 52.0808 16.3034 51.5638C15.8393 51.3215 14.9369 50.9881 14.6156 50.8371C14.0945 50.5921 16.1707 49.459 16.3372 49.3727ZM16.6114 55.1574C14.9929 53.0409 12.0564 51.7583 10.9157 49.3737C10.5515 48.6123 9.70786 47.3286 10.103 46.4242C10.3141 45.9412 10.7717 47.0724 10.8638 47.4302C11.3352 49.2609 12.9055 50.6247 14.2248 51.9301C14.9602 52.6369 16.8415 53.9757 16.6114 55.1574ZM13.5687 50.0892C13.8519 47.3576 18.1122 46.3339 20.2553 45.4726C21.6338 44.9185 25.7263 44.3587 25.8648 42.6916C26.0042 41.0133 18.9835 40.9735 17.9566 41.006C16.6846 41.0094 15.4848 41.1892 14.2683 41.5496C11.6033 42.4352 10.7052 44.3629 11.5978 46.8822C12.006 48.0346 12.924 49.0407 13.5687 50.0892ZM16.3372 49.3727C17.6836 48.6754 20.371 47.3931 21.9769 48.1353C22.958 48.5888 22.8371 49.3223 22.5083 50.207C22.0798 51.36 20.1809 54.0683 18.6102 54.0058C17.7888 53.9731 17.2936 52.0808 16.3034 51.5638C15.8393 51.3215 14.9369 50.9881 14.6156 50.8371C14.0945 50.5921 16.1707 49.459 16.3372 49.3727ZM16.6114 55.1574C14.9929 53.0409 12.0564 51.7583 10.9157 49.3737C10.5515 48.6123 9.70786 47.3286 10.103 46.4242C10.3141 45.9412 10.7717 47.0724 10.8638 47.4302C11.3352 49.2609 12.9055 50.6247 14.2248 51.9301C14.9602 52.6369 16.8415 53.9757 16.6114 55.1574Z" fill="#292828"/>
<path fill-rule="evenodd" clip-rule="evenodd" d="M13.5687 50.0892C13.8519 47.3576 18.1122 46.3339 20.2553 45.4726C21.6338 44.9185 25.7263 44.3587 25.8648 42.6916C26.0042 41.0133 18.9835 40.9735 17.9566 41.006C16.6846 41.0094 15.4848 41.1892 14.2683 41.5496C11.6033 42.4352 10.7052 44.3629 11.5978 46.8822C12.006 48.0346 12.924 49.0407 13.5687 50.0892ZM16.3372 49.3727C17.6836 48.6754 20.371 47.3931 21.9769 48.1353C22.958 48.5888 22.8371 49.3223 22.5083 50.207C22.0798 51.36 20.1809 54.0683 18.6102 54.0058C17.7888 53.9731 17.2936 52.0808 16.3034 51.5638C15.8393 51.3215 14.9369 50.9881 14.6156 50.8371C14.0945 50.5921 16.1707 49.459 16.3372 49.3727ZM16.6114 55.1574C14.9929 53.0409 12.0564 51.7583 10.9157 49.3737C10.5515 48.6123 9.70786 47.3286 10.103 46.4242C10.3141 45.9412 10.7717 47.0724 10.8638 47.4302C11.3352 49.2609 12.9055 50.6247 14.2248 51.9301C14.9602 52.6369 16.8415 53.9757 16.6114 55.1574ZM13.5687 50.0892C13.8519 47.3576 18.1122 46.3339 20.2553 45.4726C21.6338 44.9185 25.7263 44.3587 25.8648 42.6916C26.0042 41.0133 18.9835 40.9735 17.9566 41.006C16.6846 41.0094 15.4848 41.1892 14.2683 41.5496C11.6033 42.4352 10.7052 44.3629 11.5978 46.8822C12.006 48.0346 12.924 49.0407 13.5687 50.0892ZM16.3372 49.3727C17.6836 48.6754 20.371 47.3931 21.9769 48.1353C22.958 48.5888 22.8371 49.3223 22.5083 50.207C22.0798 51.36 20.1809 54.0683 18.6102 54.0058C17.7888 53.9731 17.2936 52.0808 16.3034 51.5638C15.8393 51.3215 14.9369 50.9881 14.6156 50.8371C14.0945 50.5921 16.1707 49.459 16.3372 49.3727ZM16.6114 55.1574C14.9929 53.0409 12.0564 51.7583 10.9157 49.3737C10.5515 48.6123 9.70786 47.3286 10.103 46.4242C10.3141 45.9412 10.7717 47.0724 10.8638 47.4302C11.3352 49.2609 12.9055 50.6247 14.2248 51.9301C14.9602 52.6369 16.8415 53.9757 16.6114 55.1574ZM13.5687 50.0892C13.8519 47.3576 18.1122 46.3339 20.2553 45.4726C21.6338 44.9185 25.7263 44.3587 25.8648 42.6916C26.0042 41.0133 18.9835 40.9735 17.9566 41.006C16.6846 41.0094 15.4848 41.1892 14.2683 41.5496C11.6033 42.4352 10.7052 44.3629 11.5978 46.8822C12.006 48.0346 12.924 49.0407 13.5687 50.0892ZM16.3372 49.3727C17.6836 48.6754 20.371 47.3931 21.9769 48.1353C22.958 48.5888 22.8371 49.3223 22.5083 50.207C22.0798 51.36 20.1809 54.0683 18.6102 54.0058C17.7888 53.9731 17.2936 52.0808 16.3034 51.5638C15.8393 51.3215 14.9369 50.9881 14.6156 50.8371C14.0945 50.5921 16.1707 49.459 16.3372 49.3727ZM16.6114 55.1574C14.9929 53.0409 12.0564 51.7583 10.9157 49.3737C10.5515 48.6123 9.70786 47.3286 10.103 46.4242C10.3141 45.9412 10.7717 47.0724 10.8638 47.4302C11.3352 49.2609 12.9055 50.6247 14.2248 51.9301C14.9602 52.6369 16.8415 53.9757 16.6114 55.1574Z" fill="#292828"/>
<path d="M13.5687 50.0892C13.8519 47.3576 18.1122 46.3339 20.2553 45.4726C21.6338 44.9185 25.7263 44.3587 25.8648 42.6916C26.0042 41.0133 18.9835 40.9735 17.9566 41.006C16.6846 41.0094 15.4848 41.1892 14.2683 41.5496C11.6033 42.4352 10.7052 44.3629 11.5978 46.8822C12.006 48.0346 12.924 49.0407 13.5687 50.0892ZM16.3372 49.3727C17.6836 48.6754 20.371 47.3931 21.9769 48.1353C22.958 48.5888 22.8371 49.3223 22.5083 50.207C22.0798 51.36 20.1809 54.0683 18.6102 54.0058C17.7888 53.9731 17.2936 52.0808 16.3034 51.5638C15.8393 51.3215 14.9369 50.9881 14.6156 50.8371C14.0945 50.5921 16.1707 49.459 16.3372 49.3727ZM16.6114 55.1574C14.9929 53.0409 12.0564 51.7583 10.9157 49.3737C10.5515 48.6123 9.70786 47.3286 10.103 46.4242C10.3141 45.9412 10.7717 47.0724 10.8638 47.4302C11.3352 49.2609 12.9055 50.6247 14.2248 51.9301C14.9602 52.6369 16.8415 53.9757 16.6114 55.1574ZM13.5687 50.0892C13.8519 47.3576 18.1122 46.3339 20.2553 45.4726C21.6338 44.9185 25.7263 44.3587 25.8648 42.6916C26.0042 41.0133 18.9835 40.9735 17.9566 41.006C16.6846 41.0094 15.4848 41.1892 14.2683 41.5496C11.6033 42.4352 10.7052 44.3629 11.5978 46.8822C12.006 48.0346 12.924 49.0407 13.5687 50.0892ZM16.3372 49.3727C17.6836 48.6754 20.371 47.3931 21.9769 48.1353C22.958 48.5888 22.8371 49.3223 22.5083 50.207C22.0798 51.36 20.1809 54.0683 18.6102 54.0058C17.7888 53.9731 17.2936 52.0808 16.3034 51.5638C15.8393 51.3215 14.9369 50.9881 14.6156 50.8371C14.0945 50.5921 16.1707 49.459 16.3372 49.3727ZM16.6114 55.1574C14.9929 53.0409 12.0564 51.7583 10.9157 49.3737C10.5515 48.6123 9.70786 47.3286 10.103 46.4242C10.3141 45.9412 10.7717 47.0724 10.8638 47.4302C11.3352 49.2609 12.9055 50.6247 14.2248 51.9301C14.9602 52.6369 16.8415 53.9757 16.6114 55.1574ZM13.5687 50.0892C13.8519 47.3576 18.1122 46.3339 20.2553 45.4726C21.6338 44.9185 25.7263 44.3587 25.8648 42.6916C26.0042 41.0133 18.9835 40.9735 17.9566 41.006C16.6846 41.0094 15.4848 41.1892 14.2683 41.5496C11.6033 42.4352 10.7052 44.3629 11.5978 46.8822C12.006 48.0346 12.924 49.0407 13.5687 50.0892ZM16.3372 49.3727C17.6836 48.6754 20.371 47.3931 21.9769 48.1353C22.958 48.5888 22.8371 49.3223 22.5083 50.207C22.0798 51.36 20.1809 54.0683 18.6102 54.0058C17.7888 53.9731 17.2936 52.0808 16.3034 51.5638C15.8393 51.3215 14.9369 50.9881 14.6156 50.8371C14.0945 50.5921 16.1707 49.459 16.3372 49.3727ZM16.6114 55.1574C14.9929 53.0409 12.0564 51.7583 10.9157 49.3737C10.5515 48.6123 9.70786 47.3286 10.103 46.4242C10.3141 45.9412 10.7717 47.0724 10.8638 47.4302C11.3352 49.2609 12.9055 50.6247 14.2248 51.9301C14.9602 52.6369 16.8415 53.9757 16.6114 55.1574Z" fill="#292828"/>
<path d="M13.1926 48.0561C14.736 45.8144 21.3067 44.7821 23.2987 43.3344C24.5121 42.4525 21.1745 42.084 19.8166 41.9979C15.9533 41.7528 10.2158 43.6194 13.1926 48.0561Z" fill="#F3F4F6" fill-opacity="0.9"/>
<path d="M21.535 50.4449C22.2986 48.8395 20.6318 48.0638 19.3681 48.6939C18.1043 49.3239 15.6973 50.6888 16.3556 50.9298C17.0931 51.2795 17.5215 51.5274 17.9875 52.1964C18.2818 52.6761 18.5559 53.2626 19.2335 52.9787C20.2503 52.4281 21.0521 51.4602 21.535 50.4449Z" fill="#F3F4F6" fill-opacity="0.9"/>
<path d="M26.2062 50.6468V43.7023H27.9268V50.6468H26.2062Z" stroke="#292828"/>
<path d="M30.4253 50.7404C30.0954 50.7404 29.7959 50.6592 29.5269 50.497C29.263 50.3286 29.0549 50.0696 28.9026 49.7202C28.7504 49.3646 28.6742 48.9091 28.6742 48.3538V45.5273H30.3948V47.9888C30.3948 48.3507 30.443 48.6034 30.5395 48.7469C30.6359 48.8904 30.7679 48.9621 30.9354 48.9621C31.0369 48.9621 31.1308 48.9309 31.217 48.8685C31.3084 48.7999 31.382 48.6907 31.4378 48.541C31.4937 48.385 31.5216 48.1822 31.5216 47.9326V45.5273H33.2422V50.6468H31.6053V49.168L31.9327 49.5705C31.7855 49.9698 31.5749 50.2662 31.3008 50.4596C31.0318 50.6468 30.74 50.7404 30.4253 50.7404Z" stroke="#292828"/>
<path d="M36.3045 50.7404C35.797 50.7404 35.3529 50.6249 34.9722 50.3941C34.5966 50.1632 34.3048 49.8481 34.0967 49.4488C33.8886 49.0432 33.7845 48.5878 33.7845 48.0824C33.7845 47.5645 33.8861 47.1059 34.0891 46.7066C34.2972 46.3072 34.5789 45.9953 34.9341 45.7706C35.2945 45.546 35.698 45.4337 36.1446 45.4337C36.5558 45.4337 36.9339 45.5336 37.279 45.7332C37.6292 45.9329 37.9084 46.2292 38.1165 46.6223C38.3296 47.0154 38.4362 47.5021 38.4362 48.0824C38.4362 48.1572 38.4337 48.2415 38.4286 48.3351C38.4235 48.4224 38.4185 48.5035 38.4134 48.5784H35.2082V47.5582H37.4998L36.8527 47.8297C36.8527 47.63 36.8222 47.4615 36.7613 47.3243C36.7055 47.1808 36.6268 47.0716 36.5253 46.9967C36.4238 46.9156 36.302 46.875 36.1599 46.875C36.0178 46.875 35.8934 46.9156 35.7868 46.9967C35.6853 47.0716 35.6066 47.1808 35.5508 47.3243C35.495 47.4615 35.4671 47.63 35.4671 47.8297V48.1479C35.4671 48.3663 35.5026 48.5534 35.5737 48.7094C35.6447 48.8654 35.7462 48.984 35.8782 49.0651C36.0101 49.1399 36.17 49.1774 36.3578 49.1774C36.5507 49.1774 36.708 49.1462 36.8298 49.0838C36.9567 49.0214 37.0887 48.9278 37.2257 48.803L38.1241 49.9168C37.9211 50.1851 37.6698 50.391 37.3704 50.5345C37.076 50.6717 36.7207 50.7404 36.3045 50.7404Z" stroke="#292828"/>
<path d="M41.315 50.6468V44.0954H44.1623C44.8983 44.0954 45.4413 44.2576 45.7915 44.582C46.1418 44.9002 46.3169 45.3089 46.3169 45.8081C46.3169 46.1388 46.2407 46.4351 46.0885 46.6972C45.9413 46.953 45.7256 47.1558 45.4413 47.3056C45.1571 47.4553 44.8069 47.5302 44.3907 47.5302L44.543 47.0248C44.9592 47.0248 45.317 47.0965 45.6164 47.24C45.921 47.3835 46.1544 47.5926 46.3169 47.8671C46.4844 48.1354 46.5681 48.4598 46.5681 48.8405C46.5681 49.4082 46.3752 49.8512 45.9895 50.1695C45.6088 50.4877 45.0505 50.6468 44.3146 50.6468H41.315ZM43.0812 49.1025H44.1623C44.3603 49.1025 44.5075 49.0588 44.6039 48.9715C44.7054 48.8841 44.7561 48.7562 44.7561 48.5878C44.7561 48.4193 44.7054 48.2914 44.6039 48.204C44.5075 48.1167 44.3603 48.073 44.1623 48.073H42.9594V46.613H43.9187C44.1217 46.613 44.2689 46.5724 44.3603 46.4913C44.4567 46.404 44.5049 46.2823 44.5049 46.1263C44.5049 45.9641 44.4567 45.8424 44.3603 45.7613C44.2689 45.6802 44.1217 45.6396 43.9187 45.6396H43.0812V49.1025Z" stroke="#292828"/>
<path d="M48.8858 50.7404C48.5559 50.7404 48.2565 50.6592 47.9875 50.497C47.7236 50.3286 47.5155 50.0696 47.3632 49.7202C47.2109 49.3646 47.1348 48.9091 47.1348 48.3538V45.5273H48.8554V47.9888C48.8554 48.3507 48.9036 48.6034 49 48.7469C49.0965 48.8904 49.2284 48.9621 49.3959 48.9621C49.4974 48.9621 49.5913 48.9309 49.6776 48.8685C49.769 48.7999 49.8426 48.6907 49.8984 48.541C49.9542 48.385 49.9822 48.1822 49.9822 47.9326V45.5273H51.7027V50.6468H50.0659V49.168L50.3933 49.5705C50.2461 49.9698 50.0354 50.2662 49.7614 50.4596C49.4924 50.6468 49.2005 50.7404 48.8858 50.7404Z" stroke="#292828"/>
<path d="M54.4758 50.7404C53.9023 50.7404 53.4556 50.5719 53.1359 50.235C52.8161 49.8918 52.6562 49.3677 52.6562 48.6626V44.3761H54.3768V48.6439C54.3768 48.7999 54.4098 48.9216 54.4758 49.0089C54.5469 49.0963 54.6331 49.1399 54.7346 49.1399C54.8818 49.1399 55.0113 49.0931 55.1229 48.9996L55.534 50.4689C55.4021 50.5625 55.2422 50.6312 55.0544 50.6748C54.8717 50.7185 54.6788 50.7404 54.4758 50.7404ZM52.0852 47.3523V45.8081H55.2295V47.3523H52.0852Z" stroke="#292828"/>
<path d="M57.9032 50.7404C57.3297 50.7404 56.8831 50.5719 56.5633 50.235C56.2435 49.8918 56.0837 49.3677 56.0837 48.6626V44.3761H57.8043V48.6439C57.8043 48.7999 57.8372 48.9216 57.9032 49.0089C57.9743 49.0963 58.0606 49.1399 58.1621 49.1399C58.3093 49.1399 58.4387 49.0931 58.5504 48.9996L58.9615 50.4689C58.8295 50.5625 58.6696 50.6312 58.4818 50.6748C58.2991 50.7185 58.1063 50.7404 57.9032 50.7404ZM55.5127 47.3523V45.8081H58.6569V47.3523H55.5127Z" stroke="#292828"/>
<path d="M61.5828 50.7404C61.0752 50.7404 60.6311 50.6249 60.2505 50.3941C59.8749 50.1632 59.5831 49.8481 59.375 49.4488C59.1669 49.0432 59.0628 48.5878 59.0628 48.0824C59.0628 47.5645 59.1643 47.1059 59.3674 46.7066C59.5754 46.3072 59.8571 45.9953 60.2124 45.7706C60.5728 45.546 60.9763 45.4337 61.4229 45.4337C61.834 45.4337 62.2122 45.5336 62.5573 45.7332C62.9075 45.9329 63.1866 46.2292 63.3947 46.6223C63.6079 47.0154 63.7145 47.5021 63.7145 48.0824C63.7145 48.1572 63.712 48.2415 63.7069 48.3351C63.7018 48.4224 63.6967 48.5035 63.6917 48.5784H60.4865V47.5582H62.7781L62.1309 47.8297C62.1309 47.63 62.1005 47.4615 62.0396 47.3243C61.9838 47.1808 61.9051 47.0716 61.8036 46.9967C61.7021 46.9156 61.5803 46.875 61.4381 46.875C61.296 46.875 61.1717 46.9156 61.0651 46.9967C60.9636 47.0716 60.8849 47.1808 60.8291 47.3243C60.7733 47.4615 60.7453 47.63 60.7453 47.8297V48.1479C60.7453 48.3663 60.7809 48.5534 60.8519 48.7094C60.923 48.8654 61.0245 48.984 61.1565 49.0651C61.2884 49.1399 61.4483 49.1774 61.6361 49.1774C61.829 49.1774 61.9863 49.1462 62.1081 49.0838C62.235 49.0214 62.367 48.9278 62.504 48.803L63.4024 49.9168C63.1993 50.1851 62.9481 50.391 62.6487 50.5345C62.3543 50.6717 61.999 50.7404 61.5828 50.7404Z" stroke="#292828"/>
<path d="M64.2575 50.6468V45.5273H65.8943V47.0716L65.6279 46.6317C65.7547 46.2324 65.9578 45.9329 66.2369 45.7332C66.5161 45.5336 66.851 45.4337 67.2419 45.4337V47.3056C67.1657 47.2931 67.0972 47.2837 67.0363 47.2775C66.9805 47.2712 66.9221 47.2681 66.8612 47.2681C66.6023 47.2681 66.3892 47.3523 66.2217 47.5208C66.0593 47.683 65.9781 47.9669 65.9781 48.3725V50.6468H64.2575Z" stroke="#292828"/>
<path d="M68.0314 50.6468V45.78C68.0314 45.1186 68.1912 44.5914 68.511 44.1983C68.8358 43.8052 69.2952 43.6087 69.889 43.6087C70.0717 43.6087 70.2544 43.6305 70.4371 43.6742C70.6249 43.7116 70.7823 43.774 70.9092 43.8614L70.4981 45.3308C70.4422 45.2996 70.3813 45.2715 70.3153 45.2465C70.2494 45.2216 70.1808 45.2091 70.1098 45.2091C69.988 45.2091 69.889 45.2559 69.8129 45.3495C69.7367 45.4431 69.6987 45.5928 69.6987 45.7987V46.0421L69.752 46.9125V50.6468H68.0314ZM67.4604 47.3523V45.8081H70.6046V47.3523H67.4604ZM71.2746 50.6468V43.7023H72.9952V50.6468H71.2746Z" stroke="#292828"/>
<path d="M73.7591 50.6468V45.5273H75.4797V50.6468H73.7591ZM74.6194 45.1155C74.3047 45.1155 74.0535 45.0126 73.8657 44.8067C73.6779 44.6008 73.584 44.3449 73.584 44.0392C73.584 43.7335 73.6779 43.4777 73.8657 43.2718C74.0535 43.0659 74.3047 42.9629 74.6194 42.9629C74.9341 42.9629 75.1853 43.0596 75.3731 43.253C75.5609 43.4465 75.6548 43.696 75.6548 44.0018C75.6548 44.3262 75.5609 44.5945 75.3731 44.8067C75.1853 45.0126 74.9341 45.1155 74.6194 45.1155Z" stroke="#292828"/>
<path d="M78.5415 50.7404C78.034 50.7404 77.5899 50.6249 77.2092 50.3941C76.8336 50.1632 76.5418 49.8481 76.3337 49.4488C76.1256 49.0432 76.0216 48.5878 76.0216 48.0824C76.0216 47.5645 76.1231 47.1059 76.3261 46.7066C76.5342 46.3072 76.8159 45.9953 77.1712 45.7706C77.5315 45.546 77.935 45.4337 78.3817 45.4337C78.7928 45.4337 79.1709 45.5336 79.516 45.7332C79.8662 45.9329 80.1454 46.2292 80.3535 46.6223C80.5667 47.0154 80.6732 47.5021 80.6732 48.0824C80.6732 48.1572 80.6707 48.2415 80.6656 48.3351C80.6606 48.4224 80.6555 48.5035 80.6504 48.5784H77.4452V47.5582H79.7368L79.0897 47.8297C79.0897 47.63 79.0592 47.4615 78.9983 47.3243C78.9425 47.1808 78.8638 47.0716 78.7623 46.9967C78.6608 46.9156 78.539 46.875 78.3969 46.875C78.2548 46.875 78.1304 46.9156 78.0238 46.9967C77.9223 47.0716 77.8437 47.1808 77.7878 47.3243C77.732 47.4615 77.7041 47.63 77.7041 47.8297V48.1479C77.7041 48.3663 77.7396 48.5534 77.8107 48.7094C77.8817 48.8654 77.9832 48.984 78.1152 49.0651C78.2472 49.1399 78.407 49.1774 78.5948 49.1774C78.7877 49.1774 78.945 49.1462 79.0669 49.0838C79.1937 49.0214 79.3257 48.9278 79.4627 48.803L80.3611 49.9168C80.1581 50.1851 79.9069 50.391 79.6074 50.5345C79.313 50.6717 78.9577 50.7404 78.5415 50.7404Z" stroke="#292828"/>
<path d="M82.8455 50.7404C82.4902 50.7404 82.14 50.6936 81.7948 50.6C81.4497 50.5064 81.1705 50.3847 80.9574 50.235L81.4294 48.8405C81.6273 48.984 81.8557 49.0963 82.1146 49.1774C82.3785 49.2585 82.6348 49.2991 82.8835 49.2991C83.0916 49.2991 83.2312 49.2772 83.3022 49.2335C83.3784 49.1899 83.4165 49.1306 83.4165 49.0557C83.4165 48.9808 83.3733 48.9278 83.287 48.8966C83.2007 48.8592 83.0865 48.8311 82.9444 48.8124C82.8023 48.7937 82.645 48.7718 82.4724 48.7469C82.3049 48.7157 82.1349 48.672 81.9623 48.6158C81.7898 48.5597 81.6324 48.4754 81.4903 48.3631C81.3482 48.2508 81.234 48.1011 81.1477 47.9139C81.0614 47.7205 81.0183 47.4771 81.0183 47.1839C81.0183 46.8594 81.097 46.5662 81.2543 46.3041C81.4167 46.0421 81.6553 45.833 81.9699 45.6771C82.2897 45.5148 82.683 45.4337 83.15 45.4337C83.4545 45.4337 83.759 45.468 84.0636 45.5367C84.3681 45.6053 84.6295 45.7114 84.8477 45.8549L84.3757 47.2494C84.1625 47.1059 83.9519 47.0092 83.7438 46.9593C83.5408 46.9031 83.3505 46.875 83.1728 46.875C82.9546 46.875 82.8049 46.9 82.7236 46.9499C82.6475 46.9998 82.6094 47.056 82.6094 47.1184C82.6094 47.1932 82.6526 47.2494 82.7389 47.2868C82.8252 47.3243 82.9394 47.3523 83.0815 47.3711C83.2236 47.3898 83.3784 47.4147 83.5459 47.4459C83.7184 47.4709 83.8885 47.5146 84.056 47.577C84.2285 47.6331 84.3859 47.7174 84.528 47.8297C84.6701 47.942 84.7843 48.0948 84.8706 48.2883C84.9569 48.4754 85 48.7157 85 49.0089C85 49.3146 84.9213 49.6017 84.764 49.87C84.6067 50.132 84.3681 50.3442 84.0483 50.5064C83.7286 50.6624 83.3276 50.7404 82.8455 50.7404Z" stroke="#292828"/>
<path fill-rule="evenodd" clip-rule="evenodd" d="M13.5687 50.0892C13.8519 47.3576 18.1122 46.3339 20.2553 45.4726C21.6338 44.9185 25.7263 44.3587 25.8648 42.6916C26.0042 41.0133 18.9835 40.9735 17.9566 41.006C16.6846 41.0094 15.4848 41.1892 14.2683 41.5496C11.6033 42.4352 10.7052 44.3629 11.5978 46.8822C12.006 48.0346 12.924 49.0407 13.5687 50.0892ZM16.3372 49.3727C17.6836 48.6754 20.371 47.3931 21.9769 48.1353C22.958 48.5888 22.8371 49.3223 22.5083 50.207C22.0798 51.36 20.1809 54.0683 18.6102 54.0058C17.7888 53.9731 17.2936 52.0808 16.3034 51.5638C15.8393 51.3215 14.9369 50.9881 14.6156 50.8371C14.0945 50.5921 16.1707 49.459 16.3372 49.3727ZM16.6114 55.1574C14.9929 53.0409 12.0564 51.7583 10.9157 49.3737C10.5515 48.6123 9.70786 47.3286 10.103 46.4242C10.3141 45.9412 10.7717 47.0724 10.8638 47.4302C11.3352 49.2609 12.9055 50.6247 14.2248 51.9301C14.9602 52.6369 16.8415 53.9757 16.6114 55.1574ZM13.5687 50.0892C13.8519 47.3576 18.1122 46.3339 20.2553 45.4726C21.6338 44.9185 25.7263 44.3587 25.8648 42.6916C26.0042 41.0133 18.9835 40.9735 17.9566 41.006C16.6846 41.0094 15.4848 41.1892 14.2683 41.5496C11.6033 42.4352 10.7052 44.3629 11.5978 46.8822C12.006 48.0346 12.924 49.0407 13.5687 50.0892ZM16.3372 49.3727C17.6836 48.6754 20.371 47.3931 21.9769 48.1353C22.958 48.5888 22.8371 49.3223 22.5083 50.207C22.0798 51.36 20.1809 54.0683 18.6102 54.0058C17.7888 53.9731 17.2936 52.0808 16.3034 51.5638C15.8393 51.3215 14.9369 50.9881 14.6156 50.8371C14.0945 50.5921 16.1707 49.459 16.3372 49.3727ZM16.6114 55.1574C14.9929 53.0409 12.0564 51.7583 10.9157 49.3737C10.5515 48.6123 9.70786 47.3286 10.103 46.4242C10.3141 45.9412 10.7717 47.0724 10.8638 47.4302C11.3352 49.2609 12.9055 50.6247 14.2248 51.9301C14.9602 52.6369 16.8415 53.9757 16.6114 55.1574ZM13.5687 50.0892C13.8519 47.3576 18.1122 46.3339 20.2553 45.4726C21.6338 44.9185 25.7263 44.3587 25.8648 42.6916C26.0042 41.0133 18.9835 40.9735 17.9566 41.006C16.6846 41.0094 15.4848 41.1892 14.2683 41.5496C11.6033 42.4352 10.7052 44.3629 11.5978 46.8822C12.006 48.0346 12.924 49.0407 13.5687 50.0892ZM16.3372 49.3727C17.6836 48.6754 20.371 47.3931 21.9769 48.1353C22.958 48.5888 22.8371 49.3223 22.5083 50.207C22.0798 51.36 20.1809 54.0683 18.6102 54.0058C17.7888 53.9731 17.2936 52.0808 16.3034 51.5638C15.8393 51.3215 14.9369 50.9881 14.6156 50.8371C14.0945 50.5921 16.1707 49.459 16.3372 49.3727ZM16.6114 55.1574C14.9929 53.0409 12.0564 51.7583 10.9157 49.3737C10.5515 48.6123 9.70786 47.3286 10.103 46.4242C10.3141 45.9412 10.7717 47.0724 10.8638 47.4302C11.3352 49.2609 12.9055 50.6247 14.2248 51.9301C14.9602 52.6369 16.8415 53.9757 16.6114 55.1574Z" stroke="#292828"/>
<path fill-rule="evenodd" clip-rule="evenodd" d="M13.5687 50.0892C13.8519 47.3576 18.1122 46.3339 20.2553 45.4726C21.6338 44.9185 25.7263 44.3587 25.8648 42.6916C26.0042 41.0133 18.9835 40.9735 17.9566 41.006C16.6846 41.0094 15.4848 41.1892 14.2683 41.5496C11.6033 42.4352 10.7052 44.3629 11.5978 46.8822C12.006 48.0346 12.924 49.0407 13.5687 50.0892ZM16.3372 49.3727C17.6836 48.6754 20.371 47.3931 21.9769 48.1353C22.958 48.5888 22.8371 49.3223 22.5083 50.207C22.0798 51.36 20.1809 54.0683 18.6102 54.0058C17.7888 53.9731 17.2936 52.0808 16.3034 51.5638C15.8393 51.3215 14.9369 50.9881 14.6156 50.8371C14.0945 50.5921 16.1707 49.459 16.3372 49.3727ZM16.6114 55.1574C14.9929 53.0409 12.0564 51.7583 10.9157 49.3737C10.5515 48.6123 9.70786 47.3286 10.103 46.4242C10.3141 45.9412 10.7717 47.0724 10.8638 47.4302C11.3352 49.2609 12.9055 50.6247 14.2248 51.9301C14.9602 52.6369 16.8415 53.9757 16.6114 55.1574ZM13.5687 50.0892C13.8519 47.3576 18.1122 46.3339 20.2553 45.4726C21.6338 44.9185 25.7263 44.3587 25.8648 42.6916C26.0042 41.0133 18.9835 40.9735 17.9566 41.006C16.6846 41.0094 15.4848 41.1892 14.2683 41.5496C11.6033 42.4352 10.7052 44.3629 11.5978 46.8822C12.006 48.0346 12.924 49.0407 13.5687 50.0892ZM16.3372 49.3727C17.6836 48.6754 20.371 47.3931 21.9769 48.1353C22.958 48.5888 22.8371 49.3223 22.5083 50.207C22.0798 51.36 20.1809 54.0683 18.6102 54.0058C17.7888 53.9731 17.2936 52.0808 16.3034 51.5638C15.8393 51.3215 14.9369 50.9881 14.6156 50.8371C14.0945 50.5921 16.1707 49.459 16.3372 49.3727ZM16.6114 55.1574C14.9929 53.0409 12.0564 51.7583 10.9157 49.3737C10.5515 48.6123 9.70786 47.3286 10.103 46.4242C10.3141 45.9412 10.7717 47.0724 10.8638 47.4302C11.3352 49.2609 12.9055 50.6247 14.2248 51.9301C14.9602 52.6369 16.8415 53.9757 16.6114 55.1574ZM13.5687 50.0892C13.8519 47.3576 18.1122 46.3339 20.2553 45.4726C21.6338 44.9185 25.7263 44.3587 25.8648 42.6916C26.0042 41.0133 18.9835 40.9735 17.9566 41.006C16.6846 41.0094 15.4848 41.1892 14.2683 41.5496C11.6033 42.4352 10.7052 44.3629 11.5978 46.8822C12.006 48.0346 12.924 49.0407 13.5687 50.0892ZM16.3372 49.3727C17.6836 48.6754 20.371 47.3931 21.9769 48.1353C22.958 48.5888 22.8371 49.3223 22.5083 50.207C22.0798 51.36 20.1809 54.0683 18.6102 54.0058C17.7888 53.9731 17.2936 52.0808 16.3034 51.5638C15.8393 51.3215 14.9369 50.9881 14.6156 50.8371C14.0945 50.5921 16.1707 49.459 16.3372 49.3727ZM16.6114 55.1574C14.9929 53.0409 12.0564 51.7583 10.9157 49.3737C10.5515 48.6123 9.70786 47.3286 10.103 46.4242C10.3141 45.9412 10.7717 47.0724 10.8638 47.4302C11.3352 49.2609 12.9055 50.6247 14.2248 51.9301C14.9602 52.6369 16.8415 53.9757 16.6114 55.1574Z" stroke="#292828"/>
<path d="M13.5687 50.0892C13.8519 47.3576 18.1122 46.3339 20.2553 45.4726C21.6338 44.9185 25.7263 44.3587 25.8648 42.6916C26.0042 41.0133 18.9835 40.9735 17.9566 41.006C16.6846 41.0094 15.4848 41.1892 14.2683 41.5496C11.6033 42.4352 10.7052 44.3629 11.5978 46.8822C12.006 48.0346 12.924 49.0407 13.5687 50.0892ZM16.3372 49.3727C17.6836 48.6754 20.371 47.3931 21.9769 48.1353C22.958 48.5888 22.8371 49.3223 22.5083 50.207C22.0798 51.36 20.1809 54.0683 18.6102 54.0058C17.7888 53.9731 17.2936 52.0808 16.3034 51.5638C15.8393 51.3215 14.9369 50.9881 14.6156 50.8371C14.0945 50.5921 16.1707 49.459 16.3372 49.3727ZM16.6114 55.1574C14.9929 53.0409 12.0564 51.7583 10.9157 49.3737C10.5515 48.6123 9.70786 47.3286 10.103 46.4242C10.3141 45.9412 10.7717 47.0724 10.8638 47.4302C11.3352 49.2609 12.9055 50.6247 14.2248 51.9301C14.9602 52.6369 16.8415 53.9757 16.6114 55.1574ZM13.5687 50.0892C13.8519 47.3576 18.1122 46.3339 20.2553 45.4726C21.6338 44.9185 25.7263 44.3587 25.8648 42.6916C26.0042 41.0133 18.9835 40.9735 17.9566 41.006C16.6846 41.0094 15.4848 41.1892 14.2683 41.5496C11.6033 42.4352 10.7052 44.3629 11.5978 46.8822C12.006 48.0346 12.924 49.0407 13.5687 50.0892ZM16.3372 49.3727C17.6836 48.6754 20.371 47.3931 21.9769 48.1353C22.958 48.5888 22.8371 49.3223 22.5083 50.207C22.0798 51.36 20.1809 54.0683 18.6102 54.0058C17.7888 53.9731 17.2936 52.0808 16.3034 51.5638C15.8393 51.3215 14.9369 50.9881 14.6156 50.8371C14.0945 50.5921 16.1707 49.459 16.3372 49.3727ZM16.6114 55.1574C14.9929 53.0409 12.0564 51.7583 10.9157 49.3737C10.5515 48.6123 9.70786 47.3286 10.103 46.4242C10.3141 45.9412 10.7717 47.0724 10.8638 47.4302C11.3352 49.2609 12.9055 50.6247 14.2248 51.9301C14.9602 52.6369 16.8415 53.9757 16.6114 55.1574ZM13.5687 50.0892C13.8519 47.3576 18.1122 46.3339 20.2553 45.4726C21.6338 44.9185 25.7263 44.3587 25.8648 42.6916C26.0042 41.0133 18.9835 40.9735 17.9566 41.006C16.6846 41.0094 15.4848 41.1892 14.2683 41.5496C11.6033 42.4352 10.7052 44.3629 11.5978 46.8822C12.006 48.0346 12.924 49.0407 13.5687 50.0892ZM16.3372 49.3727C17.6836 48.6754 20.371 47.3931 21.9769 48.1353C22.958 48.5888 22.8371 49.3223 22.5083 50.207C22.0798 51.36 20.1809 54.0683 18.6102 54.0058C17.7888 53.9731 17.2936 52.0808 16.3034 51.5638C15.8393 51.3215 14.9369 50.9881 14.6156 50.8371C14.0945 50.5921 16.1707 49.459 16.3372 49.3727ZM16.6114 55.1574C14.9929 53.0409 12.0564 51.7583 10.9157 49.3737C10.5515 48.6123 9.70786 47.3286 10.103 46.4242C10.3141 45.9412 10.7717 47.0724 10.8638 47.4302C11.3352 49.2609 12.9055 50.6247 14.2248 51.9301C14.9602 52.6369 16.8415 53.9757 16.6114 55.1574Z" stroke="#292828"/>
<path d="M13.1926 48.0561C14.736 45.8144 21.3067 44.7821 23.2987 43.3344C24.5121 42.4525 21.1745 42.084 19.8166 41.9979C15.9533 41.7528 10.2158 43.6194 13.1926 48.0561Z" stroke="#292828"/>
<path d="M21.535 50.4449C22.2986 48.8395 20.6318 48.0638 19.3681 48.6939C18.1043 49.3239 15.6973 50.6888 16.3556 50.9298C17.0931 51.2795 17.5215 51.5274 17.9875 52.1964C18.2818 52.6761 18.5559 53.2626 19.2335 52.9787C20.2503 52.4281 21.0521 51.4602 21.535 50.4449Z" stroke="#292828"/>
</svg>
