<svg width="44" height="41" viewBox="0 0 44 41" fill="none" xmlns="http://www.w3.org/2000/svg">
<g id="Vector">
<path fill-rule="evenodd" clip-rule="evenodd" d="M9.73209 26.0459C10.5001 18.3824 22.053 15.5107 27.8646 13.0942C31.6027 11.5399 42.7006 9.96939 43.0761 5.29224C43.4542 0.583819 24.4158 0.472374 21.631 0.563556C18.1817 0.572938 14.9281 1.07745 11.6294 2.08845C4.40256 4.57295 1.96712 9.98092 4.38747 17.0489C5.49453 20.2817 7.98401 23.1043 9.73209 26.0459ZM17.2398 24.0359C20.8908 22.0797 28.1783 18.4822 32.533 20.5645C35.1936 21.8366 34.8656 23.8944 33.9741 26.3764C32.8121 29.611 27.6628 37.209 23.4035 37.0337C21.1761 36.9421 19.833 31.6333 17.1479 30.1827C15.8896 29.503 13.4423 28.5677 12.5712 28.144C11.158 27.4566 16.7883 24.2778 17.2398 24.0359ZM17.9831 40.2645C13.5942 34.3268 5.6313 30.7284 2.53794 24.0386C1.5502 21.9025 -0.737456 18.3011 0.3341 15.764C0.906461 14.4089 2.14734 17.5824 2.39715 18.5861C3.67553 23.7222 7.93376 27.5482 11.5114 31.2105C13.5057 33.1933 18.6073 36.9493 17.9831 40.2645ZM9.73209 26.0459C10.5001 18.3824 22.053 15.5107 27.8646 13.0942C31.6027 11.5399 42.7006 9.96939 43.0761 5.29224C43.4542 0.583819 24.4158 0.472374 21.631 0.563556C18.1817 0.572938 14.9281 1.07745 11.6294 2.08845C4.40256 4.57295 1.96712 9.98092 4.38747 17.0489C5.49453 20.2817 7.98401 23.1043 9.73209 26.0459ZM17.2398 24.0359C20.8908 22.0797 28.1783 18.4822 32.533 20.5645C35.1936 21.8366 34.8656 23.8944 33.9741 26.3764C32.8121 29.611 27.6628 37.209 23.4035 37.0337C21.1761 36.9421 19.833 31.6333 17.1479 30.1827C15.8896 29.503 13.4423 28.5677 12.5712 28.144C11.158 27.4566 16.7883 24.2778 17.2398 24.0359ZM17.9831 40.2645C13.5942 34.3268 5.6313 30.7284 2.53794 24.0386C1.5502 21.9025 -0.737456 18.3011 0.3341 15.764C0.906461 14.4089 2.14734 17.5824 2.39715 18.5861C3.67553 23.7222 7.93376 27.5482 11.5114 31.2105C13.5057 33.1933 18.6073 36.9493 17.9831 40.2645ZM9.73209 26.0459C10.5001 18.3824 22.053 15.5107 27.8646 13.0942C31.6027 11.5399 42.7006 9.96939 43.0761 5.29224C43.4542 0.583819 24.4158 0.472374 21.631 0.563556C18.1817 0.572938 14.9281 1.07745 11.6294 2.08845C4.40256 4.57295 1.96712 9.98092 4.38747 17.0489C5.49453 20.2817 7.98401 23.1043 9.73209 26.0459ZM17.2398 24.0359C20.8908 22.0797 28.1783 18.4822 32.533 20.5645C35.1936 21.8366 34.8656 23.8944 33.9741 26.3764C32.8121 29.611 27.6628 37.209 23.4035 37.0337C21.1761 36.9421 19.833 31.6333 17.1479 30.1827C15.8896 29.503 13.4423 28.5677 12.5712 28.144C11.158 27.4566 16.7883 24.2778 17.2398 24.0359ZM17.9831 40.2645C13.5942 34.3268 5.6313 30.7284 2.53794 24.0386C1.5502 21.9025 -0.737456 18.3011 0.3341 15.764C0.906461 14.4089 2.14734 17.5824 2.39715 18.5861C3.67553 23.7222 7.93376 27.5482 11.5114 31.2105C13.5057 33.1933 18.6073 36.9493 17.9831 40.2645Z" fill="#F59E0B"/>
<path fill-rule="evenodd" clip-rule="evenodd" d="M9.73209 26.0459C10.5001 18.3824 22.053 15.5107 27.8646 13.0942C31.6027 11.5399 42.7006 9.96939 43.0761 5.29224C43.4542 0.583819 24.4158 0.472374 21.631 0.563556C18.1817 0.572938 14.9281 1.07745 11.6294 2.08845C4.40256 4.57295 1.96712 9.98092 4.38747 17.0489C5.49453 20.2817 7.98401 23.1043 9.73209 26.0459ZM17.2398 24.0359C20.8908 22.0797 28.1783 18.4822 32.533 20.5645C35.1936 21.8366 34.8656 23.8944 33.9741 26.3764C32.8121 29.611 27.6628 37.209 23.4035 37.0337C21.1761 36.9421 19.833 31.6333 17.1479 30.1827C15.8896 29.503 13.4423 28.5677 12.5712 28.144C11.158 27.4566 16.7883 24.2778 17.2398 24.0359ZM17.9831 40.2645C13.5942 34.3268 5.6313 30.7284 2.53794 24.0386C1.5502 21.9025 -0.737456 18.3011 0.3341 15.764C0.906461 14.4089 2.14734 17.5824 2.39715 18.5861C3.67553 23.7222 7.93376 27.5482 11.5114 31.2105C13.5057 33.1933 18.6073 36.9493 17.9831 40.2645ZM9.73209 26.0459C10.5001 18.3824 22.053 15.5107 27.8646 13.0942C31.6027 11.5399 42.7006 9.96939 43.0761 5.29224C43.4542 0.583819 24.4158 0.472374 21.631 0.563556C18.1817 0.572938 14.9281 1.07745 11.6294 2.08845C4.40256 4.57295 1.96712 9.98092 4.38747 17.0489C5.49453 20.2817 7.98401 23.1043 9.73209 26.0459ZM17.2398 24.0359C20.8908 22.0797 28.1783 18.4822 32.533 20.5645C35.1936 21.8366 34.8656 23.8944 33.9741 26.3764C32.8121 29.611 27.6628 37.209 23.4035 37.0337C21.1761 36.9421 19.833 31.6333 17.1479 30.1827C15.8896 29.503 13.4423 28.5677 12.5712 28.144C11.158 27.4566 16.7883 24.2778 17.2398 24.0359ZM17.9831 40.2645C13.5942 34.3268 5.6313 30.7284 2.53794 24.0386C1.5502 21.9025 -0.737456 18.3011 0.3341 15.764C0.906461 14.4089 2.14734 17.5824 2.39715 18.5861C3.67553 23.7222 7.93376 27.5482 11.5114 31.2105C13.5057 33.1933 18.6073 36.9493 17.9831 40.2645ZM9.73209 26.0459C10.5001 18.3824 22.053 15.5107 27.8646 13.0942C31.6027 11.5399 42.7006 9.96939 43.0761 5.29224C43.4542 0.583819 24.4158 0.472374 21.631 0.563556C18.1817 0.572938 14.9281 1.07745 11.6294 2.08845C4.40256 4.57295 1.96712 9.98092 4.38747 17.0489C5.49453 20.2817 7.98401 23.1043 9.73209 26.0459ZM17.2398 24.0359C20.8908 22.0797 28.1783 18.4822 32.533 20.5645C35.1936 21.8366 34.8656 23.8944 33.9741 26.3764C32.8121 29.611 27.6628 37.209 23.4035 37.0337C21.1761 36.9421 19.833 31.6333 17.1479 30.1827C15.8896 29.503 13.4423 28.5677 12.5712 28.144C11.158 27.4566 16.7883 24.2778 17.2398 24.0359ZM17.9831 40.2645C13.5942 34.3268 5.6313 30.7284 2.53794 24.0386C1.5502 21.9025 -0.737456 18.3011 0.3341 15.764C0.906461 14.4089 2.14734 17.5824 2.39715 18.5861C3.67553 23.7222 7.93376 27.5482 11.5114 31.2105C13.5057 33.1933 18.6073 36.9493 17.9831 40.2645Z" fill="#F59E0B"/>
<path d="M9.73209 26.0459C10.5001 18.3824 22.053 15.5107 27.8646 13.0942C31.6027 11.5399 42.7006 9.96939 43.0761 5.29224C43.4542 0.583819 24.4158 0.472374 21.631 0.563556C18.1817 0.572938 14.9281 1.07745 11.6294 2.08845C4.40256 4.57295 1.96712 9.98092 4.38747 17.0489C5.49453 20.2817 7.98401 23.1043 9.73209 26.0459ZM17.2398 24.0359C20.8908 22.0797 28.1783 18.4822 32.533 20.5645C35.1936 21.8366 34.8656 23.8944 33.9741 26.3764C32.8121 29.611 27.6628 37.209 23.4035 37.0337C21.1761 36.9421 19.833 31.6333 17.1479 30.1827C15.8896 29.503 13.4423 28.5677 12.5712 28.144C11.158 27.4566 16.7883 24.2778 17.2398 24.0359ZM17.9831 40.2645C13.5942 34.3268 5.6313 30.7284 2.53794 24.0386C1.5502 21.9025 -0.737456 18.3011 0.3341 15.764C0.906461 14.4089 2.14734 17.5824 2.39715 18.5861C3.67553 23.7222 7.93376 27.5482 11.5114 31.2105C13.5057 33.1933 18.6073 36.9493 17.9831 40.2645ZM9.73209 26.0459C10.5001 18.3824 22.053 15.5107 27.8646 13.0942C31.6027 11.5399 42.7006 9.96939 43.0761 5.29224C43.4542 0.583819 24.4158 0.472374 21.631 0.563556C18.1817 0.572938 14.9281 1.07745 11.6294 2.08845C4.40256 4.57295 1.96712 9.98092 4.38747 17.0489C5.49453 20.2817 7.98401 23.1043 9.73209 26.0459ZM17.2398 24.0359C20.8908 22.0797 28.1783 18.4822 32.533 20.5645C35.1936 21.8366 34.8656 23.8944 33.9741 26.3764C32.8121 29.611 27.6628 37.209 23.4035 37.0337C21.1761 36.9421 19.833 31.6333 17.1479 30.1827C15.8896 29.503 13.4423 28.5677 12.5712 28.144C11.158 27.4566 16.7883 24.2778 17.2398 24.0359ZM17.9831 40.2645C13.5942 34.3268 5.6313 30.7284 2.53794 24.0386C1.5502 21.9025 -0.737456 18.3011 0.3341 15.764C0.906461 14.4089 2.14734 17.5824 2.39715 18.5861C3.67553 23.7222 7.93376 27.5482 11.5114 31.2105C13.5057 33.1933 18.6073 36.9493 17.9831 40.2645ZM9.73209 26.0459C10.5001 18.3824 22.053 15.5107 27.8646 13.0942C31.6027 11.5399 42.7006 9.96939 43.0761 5.29224C43.4542 0.583819 24.4158 0.472374 21.631 0.563556C18.1817 0.572938 14.9281 1.07745 11.6294 2.08845C4.40256 4.57295 1.96712 9.98092 4.38747 17.0489C5.49453 20.2817 7.98401 23.1043 9.73209 26.0459ZM17.2398 24.0359C20.8908 22.0797 28.1783 18.4822 32.533 20.5645C35.1936 21.8366 34.8656 23.8944 33.9741 26.3764C32.8121 29.611 27.6628 37.209 23.4035 37.0337C21.1761 36.9421 19.833 31.6333 17.1479 30.1827C15.8896 29.503 13.4423 28.5677 12.5712 28.144C11.158 27.4566 16.7883 24.2778 17.2398 24.0359ZM17.9831 40.2645C13.5942 34.3268 5.6313 30.7284 2.53794 24.0386C1.5502 21.9025 -0.737456 18.3011 0.3341 15.764C0.906461 14.4089 2.14734 17.5824 2.39715 18.5861C3.67553 23.7222 7.93376 27.5482 11.5114 31.2105C13.5057 33.1933 18.6073 36.9493 17.9831 40.2645Z" fill="#F59E0B"/>
<path d="M8.71236 20.3421C12.8976 14.0532 30.7157 11.1572 36.1175 7.0957C39.4079 4.62164 30.3573 3.58774 26.6749 3.34606C16.1987 2.6585 0.639962 7.89516 8.71236 20.3421Z" fill="white"/>
<path d="M31.3349 27.0437C33.4055 22.5398 28.8856 20.3639 25.4586 22.1314C22.0317 23.8989 15.5045 27.7279 17.2896 28.4043C19.2894 29.3853 20.4511 30.0807 21.7148 31.9576C22.5129 33.3033 23.2561 34.9488 25.0938 34.1523C27.8511 32.6076 30.0253 29.8923 31.3349 27.0437Z" fill="white"/>
<path fill-rule="evenodd" clip-rule="evenodd" d="M9.73209 26.0459C10.5001 18.3824 22.053 15.5107 27.8646 13.0942C31.6027 11.5399 42.7006 9.96939 43.0761 5.29224C43.4542 0.583819 24.4158 0.472374 21.631 0.563556C18.1817 0.572938 14.9281 1.07745 11.6294 2.08845C4.40256 4.57295 1.96712 9.98092 4.38747 17.0489C5.49453 20.2817 7.98401 23.1043 9.73209 26.0459ZM17.2398 24.0359C20.8908 22.0797 28.1783 18.4822 32.533 20.5645C35.1936 21.8366 34.8656 23.8944 33.9741 26.3764C32.8121 29.611 27.6628 37.209 23.4035 37.0337C21.1761 36.9421 19.833 31.6333 17.1479 30.1827C15.8896 29.503 13.4423 28.5677 12.5712 28.144C11.158 27.4566 16.7883 24.2778 17.2398 24.0359ZM17.9831 40.2645C13.5942 34.3268 5.6313 30.7284 2.53794 24.0386C1.5502 21.9025 -0.737456 18.3011 0.3341 15.764C0.906461 14.4089 2.14734 17.5824 2.39715 18.5861C3.67553 23.7222 7.93376 27.5482 11.5114 31.2105C13.5057 33.1933 18.6073 36.9493 17.9831 40.2645ZM9.73209 26.0459C10.5001 18.3824 22.053 15.5107 27.8646 13.0942C31.6027 11.5399 42.7006 9.96939 43.0761 5.29224C43.4542 0.583819 24.4158 0.472374 21.631 0.563556C18.1817 0.572938 14.9281 1.07745 11.6294 2.08845C4.40256 4.57295 1.96712 9.98092 4.38747 17.0489C5.49453 20.2817 7.98401 23.1043 9.73209 26.0459ZM17.2398 24.0359C20.8908 22.0797 28.1783 18.4822 32.533 20.5645C35.1936 21.8366 34.8656 23.8944 33.9741 26.3764C32.8121 29.611 27.6628 37.209 23.4035 37.0337C21.1761 36.9421 19.833 31.6333 17.1479 30.1827C15.8896 29.503 13.4423 28.5677 12.5712 28.144C11.158 27.4566 16.7883 24.2778 17.2398 24.0359ZM17.9831 40.2645C13.5942 34.3268 5.6313 30.7284 2.53794 24.0386C1.5502 21.9025 -0.737456 18.3011 0.3341 15.764C0.906461 14.4089 2.14734 17.5824 2.39715 18.5861C3.67553 23.7222 7.93376 27.5482 11.5114 31.2105C13.5057 33.1933 18.6073 36.9493 17.9831 40.2645ZM9.73209 26.0459C10.5001 18.3824 22.053 15.5107 27.8646 13.0942C31.6027 11.5399 42.7006 9.96939 43.0761 5.29224C43.4542 0.583819 24.4158 0.472374 21.631 0.563556C18.1817 0.572938 14.9281 1.07745 11.6294 2.08845C4.40256 4.57295 1.96712 9.98092 4.38747 17.0489C5.49453 20.2817 7.98401 23.1043 9.73209 26.0459ZM17.2398 24.0359C20.8908 22.0797 28.1783 18.4822 32.533 20.5645C35.1936 21.8366 34.8656 23.8944 33.9741 26.3764C32.8121 29.611 27.6628 37.209 23.4035 37.0337C21.1761 36.9421 19.833 31.6333 17.1479 30.1827C15.8896 29.503 13.4423 28.5677 12.5712 28.144C11.158 27.4566 16.7883 24.2778 17.2398 24.0359ZM17.9831 40.2645C13.5942 34.3268 5.6313 30.7284 2.53794 24.0386C1.5502 21.9025 -0.737456 18.3011 0.3341 15.764C0.906461 14.4089 2.14734 17.5824 2.39715 18.5861C3.67553 23.7222 7.93376 27.5482 11.5114 31.2105C13.5057 33.1933 18.6073 36.9493 17.9831 40.2645Z" stroke="black"/>
<path fill-rule="evenodd" clip-rule="evenodd" d="M9.73209 26.0459C10.5001 18.3824 22.053 15.5107 27.8646 13.0942C31.6027 11.5399 42.7006 9.96939 43.0761 5.29224C43.4542 0.583819 24.4158 0.472374 21.631 0.563556C18.1817 0.572938 14.9281 1.07745 11.6294 2.08845C4.40256 4.57295 1.96712 9.98092 4.38747 17.0489C5.49453 20.2817 7.98401 23.1043 9.73209 26.0459ZM17.2398 24.0359C20.8908 22.0797 28.1783 18.4822 32.533 20.5645C35.1936 21.8366 34.8656 23.8944 33.9741 26.3764C32.8121 29.611 27.6628 37.209 23.4035 37.0337C21.1761 36.9421 19.833 31.6333 17.1479 30.1827C15.8896 29.503 13.4423 28.5677 12.5712 28.144C11.158 27.4566 16.7883 24.2778 17.2398 24.0359ZM17.9831 40.2645C13.5942 34.3268 5.6313 30.7284 2.53794 24.0386C1.5502 21.9025 -0.737456 18.3011 0.3341 15.764C0.906461 14.4089 2.14734 17.5824 2.39715 18.5861C3.67553 23.7222 7.93376 27.5482 11.5114 31.2105C13.5057 33.1933 18.6073 36.9493 17.9831 40.2645ZM9.73209 26.0459C10.5001 18.3824 22.053 15.5107 27.8646 13.0942C31.6027 11.5399 42.7006 9.96939 43.0761 5.29224C43.4542 0.583819 24.4158 0.472374 21.631 0.563556C18.1817 0.572938 14.9281 1.07745 11.6294 2.08845C4.40256 4.57295 1.96712 9.98092 4.38747 17.0489C5.49453 20.2817 7.98401 23.1043 9.73209 26.0459ZM17.2398 24.0359C20.8908 22.0797 28.1783 18.4822 32.533 20.5645C35.1936 21.8366 34.8656 23.8944 33.9741 26.3764C32.8121 29.611 27.6628 37.209 23.4035 37.0337C21.1761 36.9421 19.833 31.6333 17.1479 30.1827C15.8896 29.503 13.4423 28.5677 12.5712 28.144C11.158 27.4566 16.7883 24.2778 17.2398 24.0359ZM17.9831 40.2645C13.5942 34.3268 5.6313 30.7284 2.53794 24.0386C1.5502 21.9025 -0.737456 18.3011 0.3341 15.764C0.906461 14.4089 2.14734 17.5824 2.39715 18.5861C3.67553 23.7222 7.93376 27.5482 11.5114 31.2105C13.5057 33.1933 18.6073 36.9493 17.9831 40.2645ZM9.73209 26.0459C10.5001 18.3824 22.053 15.5107 27.8646 13.0942C31.6027 11.5399 42.7006 9.96939 43.0761 5.29224C43.4542 0.583819 24.4158 0.472374 21.631 0.563556C18.1817 0.572938 14.9281 1.07745 11.6294 2.08845C4.40256 4.57295 1.96712 9.98092 4.38747 17.0489C5.49453 20.2817 7.98401 23.1043 9.73209 26.0459ZM17.2398 24.0359C20.8908 22.0797 28.1783 18.4822 32.533 20.5645C35.1936 21.8366 34.8656 23.8944 33.9741 26.3764C32.8121 29.611 27.6628 37.209 23.4035 37.0337C21.1761 36.9421 19.833 31.6333 17.1479 30.1827C15.8896 29.503 13.4423 28.5677 12.5712 28.144C11.158 27.4566 16.7883 24.2778 17.2398 24.0359ZM17.9831 40.2645C13.5942 34.3268 5.6313 30.7284 2.53794 24.0386C1.5502 21.9025 -0.737456 18.3011 0.3341 15.764C0.906461 14.4089 2.14734 17.5824 2.39715 18.5861C3.67553 23.7222 7.93376 27.5482 11.5114 31.2105C13.5057 33.1933 18.6073 36.9493 17.9831 40.2645Z" stroke="black"/>
<path d="M9.73209 26.0459C10.5001 18.3824 22.053 15.5107 27.8646 13.0942C31.6027 11.5399 42.7006 9.96939 43.0761 5.29224C43.4542 0.583819 24.4158 0.472374 21.631 0.563556C18.1817 0.572938 14.9281 1.07745 11.6294 2.08845C4.40256 4.57295 1.96712 9.98092 4.38747 17.0489C5.49453 20.2817 7.98401 23.1043 9.73209 26.0459ZM17.2398 24.0359C20.8908 22.0797 28.1783 18.4822 32.533 20.5645C35.1936 21.8366 34.8656 23.8944 33.9741 26.3764C32.8121 29.611 27.6628 37.209 23.4035 37.0337C21.1761 36.9421 19.833 31.6333 17.1479 30.1827C15.8896 29.503 13.4423 28.5677 12.5712 28.144C11.158 27.4566 16.7883 24.2778 17.2398 24.0359ZM17.9831 40.2645C13.5942 34.3268 5.6313 30.7284 2.53794 24.0386C1.5502 21.9025 -0.737456 18.3011 0.3341 15.764C0.906461 14.4089 2.14734 17.5824 2.39715 18.5861C3.67553 23.7222 7.93376 27.5482 11.5114 31.2105C13.5057 33.1933 18.6073 36.9493 17.9831 40.2645ZM9.73209 26.0459C10.5001 18.3824 22.053 15.5107 27.8646 13.0942C31.6027 11.5399 42.7006 9.96939 43.0761 5.29224C43.4542 0.583819 24.4158 0.472374 21.631 0.563556C18.1817 0.572938 14.9281 1.07745 11.6294 2.08845C4.40256 4.57295 1.96712 9.98092 4.38747 17.0489C5.49453 20.2817 7.98401 23.1043 9.73209 26.0459ZM17.2398 24.0359C20.8908 22.0797 28.1783 18.4822 32.533 20.5645C35.1936 21.8366 34.8656 23.8944 33.9741 26.3764C32.8121 29.611 27.6628 37.209 23.4035 37.0337C21.1761 36.9421 19.833 31.6333 17.1479 30.1827C15.8896 29.503 13.4423 28.5677 12.5712 28.144C11.158 27.4566 16.7883 24.2778 17.2398 24.0359ZM17.9831 40.2645C13.5942 34.3268 5.6313 30.7284 2.53794 24.0386C1.5502 21.9025 -0.737456 18.3011 0.3341 15.764C0.906461 14.4089 2.14734 17.5824 2.39715 18.5861C3.67553 23.7222 7.93376 27.5482 11.5114 31.2105C13.5057 33.1933 18.6073 36.9493 17.9831 40.2645ZM9.73209 26.0459C10.5001 18.3824 22.053 15.5107 27.8646 13.0942C31.6027 11.5399 42.7006 9.96939 43.0761 5.29224C43.4542 0.583819 24.4158 0.472374 21.631 0.563556C18.1817 0.572938 14.9281 1.07745 11.6294 2.08845C4.40256 4.57295 1.96712 9.98092 4.38747 17.0489C5.49453 20.2817 7.98401 23.1043 9.73209 26.0459ZM17.2398 24.0359C20.8908 22.0797 28.1783 18.4822 32.533 20.5645C35.1936 21.8366 34.8656 23.8944 33.9741 26.3764C32.8121 29.611 27.6628 37.209 23.4035 37.0337C21.1761 36.9421 19.833 31.6333 17.1479 30.1827C15.8896 29.503 13.4423 28.5677 12.5712 28.144C11.158 27.4566 16.7883 24.2778 17.2398 24.0359ZM17.9831 40.2645C13.5942 34.3268 5.6313 30.7284 2.53794 24.0386C1.5502 21.9025 -0.737456 18.3011 0.3341 15.764C0.906461 14.4089 2.14734 17.5824 2.39715 18.5861C3.67553 23.7222 7.93376 27.5482 11.5114 31.2105C13.5057 33.1933 18.6073 36.9493 17.9831 40.2645Z" stroke="black"/>
<path d="M8.71236 20.3421C12.8976 14.0532 30.7157 11.1572 36.1175 7.0957C39.4079 4.62164 30.3573 3.58774 26.6749 3.34606C16.1987 2.6585 0.639962 7.89516 8.71236 20.3421Z" stroke="black"/>
<path d="M31.3349 27.0437C33.4055 22.5398 28.8856 20.3639 25.4586 22.1314C22.0317 23.8989 15.5045 27.7279 17.2896 28.4043C19.2894 29.3853 20.4511 30.0807 21.7148 31.9576C22.5129 33.3033 23.2561 34.9488 25.0938 34.1523C27.8511 32.6076 30.0253 29.8923 31.3349 27.0437Z" stroke="black"/>
</g>
</svg>
