<svg width="203" height="32" viewBox="0 0 203 32" fill="none" xmlns="http://www.w3.org/2000/svg">
<path d="M43.8649 21.6232V6.41708H48.5219V21.6232H43.8649Z" fill="#292828"/>
<path d="M55.2844 21.8281C54.3914 21.8281 53.5809 21.6505 52.8528 21.2953C52.1385 20.9264 51.5752 20.3594 51.1631 19.5944C50.751 18.8156 50.5449 17.8183 50.5449 16.6023V10.4133H55.202V15.8031C55.202 16.5955 55.3325 17.1488 55.5935 17.463C55.8545 17.7773 56.2117 17.9344 56.665 17.9344C56.9398 17.9344 57.1939 17.8661 57.4275 17.7295C57.6747 17.5792 57.8739 17.3401 58.0251 17.0122C58.1762 16.6706 58.2517 16.2266 58.2517 15.6801V10.4133H62.9088V21.6232H58.4784V18.3852L59.3645 19.2665C58.9661 20.1408 58.396 20.7898 57.6541 21.2133C56.926 21.6232 56.1361 21.8281 55.2844 21.8281Z" fill="#292828"/>
<path d="M71.1976 21.8281C69.8238 21.8281 68.6218 21.5754 67.5914 21.0699C66.5749 20.5644 65.7849 19.8744 65.2217 19C64.6585 18.112 64.3768 17.1147 64.3768 16.008C64.3768 14.874 64.6516 13.8699 65.2011 12.9955C65.7643 12.1211 66.5268 11.438 67.4884 10.9461C68.4638 10.4543 69.5559 10.2084 70.7648 10.2084C71.8776 10.2084 72.901 10.427 73.8352 10.8642C74.7831 11.3013 75.5387 11.9503 76.1019 12.811C76.6789 13.6718 76.9674 14.7374 76.9674 16.008C76.9674 16.172 76.9605 16.3564 76.9468 16.5613C76.933 16.7526 76.9193 16.9302 76.9056 17.0942H68.2302V14.8604H74.4328L72.6812 15.4547C72.6812 15.0175 72.5988 14.6486 72.434 14.348C72.2828 14.0338 72.0699 13.7947 71.7952 13.6308C71.5204 13.4532 71.1907 13.3644 70.806 13.3644C70.4214 13.3644 70.0848 13.4532 69.7963 13.6308C69.5216 13.7947 69.3086 14.0338 69.1575 14.348C69.0064 14.6486 68.9309 15.0175 68.9309 15.4547V16.1515C68.9309 16.6296 69.027 17.0395 69.2194 17.3811C69.4117 17.7226 69.6864 17.9822 70.0436 18.1598C70.4008 18.3238 70.8335 18.4057 71.3418 18.4057C71.8638 18.4057 72.2897 18.3374 72.6194 18.2008C72.9629 18.0642 73.32 17.8592 73.6909 17.586L76.1225 20.0247C75.573 20.6122 74.893 21.0631 74.0825 21.3773C73.2857 21.6779 72.3241 21.8281 71.1976 21.8281Z" fill="#292828"/>
<path d="M84.7592 21.6232V7.27781H92.466C94.458 7.27781 95.9279 7.63303 96.8758 8.34347C97.8237 9.04024 98.2976 9.93512 98.2976 11.0281C98.2976 11.7522 98.0916 12.4012 97.6794 12.975C97.281 13.5351 96.6972 13.9792 95.9279 14.3071C95.1586 14.6349 94.2107 14.7989 93.0842 14.7989L93.4963 13.6922C94.6228 13.6922 95.5913 13.8494 96.4018 14.1636C97.2261 14.4778 97.858 14.9355 98.2976 15.5367C98.751 16.1241 98.9776 16.8346 98.9776 17.668C98.9776 18.9112 98.4556 19.8813 97.4115 20.578C96.3812 21.2748 94.8701 21.6232 92.8781 21.6232H84.7592ZM89.5399 18.2418H92.466C93.0018 18.2418 93.4002 18.1462 93.6612 17.9549C93.9359 17.7636 94.0733 17.4835 94.0733 17.1147C94.0733 16.7458 93.9359 16.4657 93.6612 16.2744C93.4002 16.0831 93.0018 15.9875 92.466 15.9875H89.2102V12.7905H91.8066C92.3561 12.7905 92.7545 12.7017 93.0018 12.5241C93.2628 12.3329 93.3933 12.0664 93.3933 11.7249C93.3933 11.3697 93.2628 11.1032 93.0018 10.9256C92.7545 10.748 92.3561 10.6592 91.8066 10.6592H89.5399V18.2418Z" fill="#292828"/>
<path d="M105.251 21.8281C104.358 21.8281 103.548 21.6505 102.819 21.2953C102.105 20.9264 101.542 20.3594 101.13 19.5944C100.718 18.8156 100.512 17.8183 100.512 16.6023V10.4133H105.169V15.8031C105.169 16.5955 105.299 17.1488 105.56 17.463C105.821 17.7773 106.178 17.9344 106.632 17.9344C106.906 17.9344 107.161 17.8661 107.394 17.7295C107.641 17.5792 107.841 17.3401 107.992 17.0122C108.143 16.6706 108.218 16.2266 108.218 15.6801V10.4133H112.875V21.6232H108.445V18.3852L109.331 19.2665C108.933 20.1408 108.363 20.7898 107.621 21.2133C106.893 21.6232 106.103 21.8281 105.251 21.8281Z" fill="#292828"/>
<path d="M120.381 21.8281C118.829 21.8281 117.62 21.4593 116.754 20.7215C115.889 19.9701 115.456 18.8224 115.456 17.2786V7.89261H120.113V17.2376C120.113 17.5792 120.203 17.8456 120.381 18.0369C120.573 18.2281 120.807 18.3238 121.082 18.3238C121.48 18.3238 121.83 18.2213 122.133 18.0164L123.245 21.2338C122.888 21.4388 122.456 21.589 121.947 21.6847C121.453 21.7803 120.931 21.8281 120.381 21.8281ZM113.911 14.4095V11.0281H122.421V14.4095H113.911Z" fill="#292828"/>
<path d="M129.658 21.8281C128.106 21.8281 126.897 21.4593 126.031 20.7215C125.166 19.9701 124.733 18.8224 124.733 17.2786V7.89261H129.39V17.2376C129.39 17.5792 129.479 17.8456 129.658 18.0369C129.85 18.2281 130.084 18.3238 130.359 18.3238C130.757 18.3238 131.107 18.2213 131.41 18.0164L132.522 21.2338C132.165 21.4388 131.732 21.589 131.224 21.6847C130.73 21.7803 130.208 21.8281 129.658 21.8281ZM123.188 14.4095V11.0281H131.698V14.4095H123.188Z" fill="#292828"/>
<path d="M139.617 21.8281C138.244 21.8281 137.042 21.5754 136.011 21.0699C134.995 20.5644 134.205 19.8744 133.642 19C133.078 18.112 132.797 17.1147 132.797 16.008C132.797 14.874 133.071 13.8699 133.621 12.9955C134.184 12.1211 134.947 11.438 135.908 10.9461C136.884 10.4543 137.976 10.2084 139.185 10.2084C140.297 10.2084 141.321 10.427 142.255 10.8642C143.203 11.3013 143.959 11.9503 144.522 12.811C145.099 13.6718 145.387 14.7374 145.387 16.008C145.387 16.172 145.38 16.3564 145.367 16.5613C145.353 16.7526 145.339 16.9302 145.325 17.0942H136.65V14.8604H142.853L141.101 15.4547C141.101 15.0175 141.019 14.6486 140.854 14.348C140.703 14.0338 140.49 13.7947 140.215 13.6308C139.94 13.4532 139.611 13.3644 139.226 13.3644C138.841 13.3644 138.505 13.4532 138.216 13.6308C137.941 13.7947 137.729 14.0338 137.577 14.348C137.426 14.6486 137.351 15.0175 137.351 15.4547V16.1515C137.351 16.6296 137.447 17.0395 137.639 17.3811C137.832 17.7226 138.106 17.9822 138.463 18.1598C138.821 18.3238 139.253 18.4057 139.762 18.4057C140.284 18.4057 140.71 18.3374 141.039 18.2008C141.383 18.0642 141.74 17.8592 142.111 17.586L144.542 20.0247C143.993 20.6122 143.313 21.0631 142.502 21.3773C141.706 21.6779 140.744 21.8281 139.617 21.8281Z" fill="#292828"/>
<path d="M146.857 21.6232V10.4133H151.287V13.7947L150.566 12.8315C150.91 11.9571 151.459 11.3013 152.215 10.8642C152.97 10.427 153.877 10.2084 154.935 10.2084V14.3071C154.729 14.2797 154.543 14.2592 154.378 14.2456C154.227 14.2319 154.069 14.2251 153.904 14.2251C153.204 14.2251 152.627 14.4095 152.173 14.7784C151.734 15.1336 151.514 15.7553 151.514 16.6433V21.6232H146.857Z" fill="#292828"/>
<path d="M157.072 21.6232V10.9666C157.072 9.51842 157.504 8.36396 158.37 7.50324C159.249 6.64251 160.492 6.21215 162.1 6.21215C162.594 6.21215 163.089 6.25997 163.583 6.3556C164.092 6.43758 164.517 6.5742 164.861 6.76547L163.748 9.98294C163.597 9.91463 163.432 9.85315 163.254 9.7985C163.075 9.74385 162.889 9.71653 162.697 9.71653C162.367 9.71653 162.1 9.81899 161.893 10.0239C161.687 10.2289 161.584 10.5568 161.584 11.0076V11.5404L161.729 13.4463V21.6232H157.072ZM155.526 14.4095V11.0281H164.037V14.4095H155.526ZM165.85 21.6232V6.41708H170.507V21.6232H165.85Z" fill="#292828"/>
<path d="M172.575 21.6232V10.4133H177.232V21.6232H172.575ZM174.903 9.51159C174.052 9.51159 173.371 9.28616 172.863 8.83531C172.355 8.38445 172.101 7.8243 172.101 7.15485C172.101 6.4854 172.355 5.92524 172.863 5.47439C173.371 5.02353 174.052 4.7981 174.903 4.7981C175.755 4.7981 176.435 5.00987 176.943 5.4334C177.452 5.85693 177.706 6.40342 177.706 7.07287C177.706 7.78331 177.452 8.37079 176.943 8.83531C176.435 9.28616 175.755 9.51159 174.903 9.51159Z" fill="#292828"/>
<path d="M185.519 21.8281C184.145 21.8281 182.943 21.5754 181.913 21.0699C180.896 20.5644 180.106 19.8744 179.543 19C178.98 18.112 178.698 17.1147 178.698 16.008C178.698 14.874 178.973 13.8699 179.523 12.9955C180.086 12.1211 180.848 11.438 181.81 10.9461C182.785 10.4543 183.877 10.2084 185.086 10.2084C186.199 10.2084 187.223 10.427 188.157 10.8642C189.105 11.3013 189.86 11.9503 190.423 12.811C191 13.6718 191.289 14.7374 191.289 16.008C191.289 16.172 191.282 16.3564 191.268 16.5613C191.255 16.7526 191.241 16.9302 191.227 17.0942H182.552V14.8604H188.754L187.003 15.4547C187.003 15.0175 186.92 14.6486 186.755 14.348C186.604 14.0338 186.391 13.7947 186.117 13.6308C185.842 13.4532 185.512 13.3644 185.128 13.3644C184.743 13.3644 184.406 13.4532 184.118 13.6308C183.843 13.7947 183.63 14.0338 183.479 14.348C183.328 14.6486 183.252 15.0175 183.252 15.4547V16.1515C183.252 16.6296 183.349 17.0395 183.541 17.3811C183.733 17.7226 184.008 17.9822 184.365 18.1598C184.722 18.3238 185.155 18.4057 185.663 18.4057C186.185 18.4057 186.611 18.3374 186.941 18.2008C187.284 18.0642 187.642 17.8592 188.012 17.586L190.444 20.0247C189.895 20.6122 189.215 21.0631 188.404 21.3773C187.607 21.6779 186.646 21.8281 185.519 21.8281Z" fill="#292828"/>
<path d="M197.168 21.8281C196.207 21.8281 195.259 21.7257 194.325 21.5207C193.391 21.3158 192.635 21.0494 192.058 20.7215L193.336 17.668C193.871 17.9822 194.49 18.2281 195.19 18.4057C195.904 18.5833 196.598 18.6722 197.271 18.6722C197.835 18.6722 198.212 18.6243 198.405 18.5287C198.611 18.4331 198.714 18.3033 198.714 18.1393C198.714 17.9754 198.597 17.8592 198.364 17.7909C198.13 17.709 197.821 17.6475 197.436 17.6065C197.052 17.5655 196.626 17.5177 196.159 17.463C195.705 17.3947 195.245 17.2991 194.778 17.1761C194.311 17.0532 193.885 16.8687 193.5 16.6228C193.116 16.3769 192.807 16.049 192.573 15.6391C192.34 15.2156 192.223 14.6828 192.223 14.0406C192.223 13.3302 192.436 12.6881 192.862 12.1143C193.301 11.5404 193.947 11.0828 194.799 10.7412C195.664 10.386 196.729 10.2084 197.993 10.2084C198.817 10.2084 199.641 10.2835 200.465 10.4338C201.29 10.5841 201.997 10.8163 202.588 11.1306L201.31 14.1841C200.733 13.8699 200.163 13.6581 199.6 13.5488C199.05 13.4258 198.535 13.3644 198.054 13.3644C197.464 13.3644 197.058 13.419 196.839 13.5283C196.633 13.6376 196.53 13.7606 196.53 13.8972C196.53 14.0611 196.646 14.1841 196.88 14.2661C197.113 14.348 197.423 14.4095 197.807 14.4505C198.192 14.4915 198.611 14.5461 199.064 14.6145C199.531 14.6691 199.991 14.7647 200.445 14.9014C200.912 15.0243 201.338 15.2088 201.722 15.4547C202.107 15.7006 202.416 16.0353 202.65 16.4589C202.883 16.8687 203 17.3947 203 18.0369C203 18.7063 202.787 19.3348 202.361 19.9223C201.935 20.4961 201.29 20.9606 200.424 21.3158C199.559 21.6574 198.473 21.8281 197.168 21.8281Z" fill="#292828"/>
<path fill-rule="evenodd" clip-rule="evenodd" d="M9.65919 20.4024C10.4258 14.4209 21.957 12.1795 27.7577 10.2935C31.4888 9.0803 42.5659 7.85452 42.9407 4.20399C43.3181 0.529031 24.3154 0.442048 21.5358 0.513217C18.093 0.520539 14.8454 0.914313 11.5529 1.7034C4.33966 3.64258 1.90878 7.86352 4.32459 13.3801C5.42958 15.9034 7.91439 18.1064 9.65919 20.4024ZM17.1528 18.8335C20.797 17.3067 28.0708 14.4988 32.4174 16.124C35.0729 17.117 34.7456 18.7231 33.8557 20.6603C32.6959 23.1849 27.5563 29.1152 23.305 28.9784C21.0818 28.9069 19.7412 24.7634 17.0611 23.6312C15.8051 23.1006 13.3624 22.3706 12.4929 22.0399C11.0825 21.5034 16.7021 19.0224 17.1528 18.8335ZM17.8948 31.5C13.5141 26.8656 5.56609 24.057 2.47854 18.8356C1.49265 17.1684 -0.790722 14.3575 0.278824 12.3773C0.850113 11.3196 2.08867 13.7965 2.338 14.5799C3.61399 18.5887 7.86423 21.5749 11.4351 24.4333C13.4257 25.9809 18.5177 28.9125 17.8948 31.5ZM9.65919 20.4024C10.4258 14.4209 21.957 12.1795 27.7577 10.2935C31.4888 9.0803 42.5659 7.85452 42.9407 4.20399C43.3181 0.529031 24.3154 0.442048 21.5358 0.513217C18.093 0.520539 14.8454 0.914313 11.5529 1.7034C4.33966 3.64258 1.90878 7.86352 4.32459 13.3801C5.42958 15.9034 7.91439 18.1064 9.65919 20.4024ZM17.1528 18.8335C20.797 17.3067 28.0708 14.4988 32.4174 16.124C35.0729 17.117 34.7456 18.7231 33.8557 20.6603C32.6959 23.1849 27.5563 29.1152 23.305 28.9784C21.0818 28.9069 19.7412 24.7634 17.0611 23.6312C15.8051 23.1006 13.3624 22.3706 12.4929 22.0399C11.0825 21.5034 16.7021 19.0224 17.1528 18.8335ZM17.8948 31.5C13.5141 26.8656 5.56609 24.057 2.47854 18.8356C1.49265 17.1684 -0.790722 14.3575 0.278824 12.3773C0.850113 11.3196 2.08867 13.7965 2.338 14.5799C3.61399 18.5887 7.86423 21.5749 11.4351 24.4333C13.4257 25.9809 18.5177 28.9125 17.8948 31.5ZM9.65919 20.4024C10.4258 14.4209 21.957 12.1795 27.7577 10.2935C31.4888 9.0803 42.5659 7.85452 42.9407 4.20399C43.3181 0.529031 24.3154 0.442048 21.5358 0.513217C18.093 0.520539 14.8454 0.914313 11.5529 1.7034C4.33966 3.64258 1.90878 7.86352 4.32459 13.3801C5.42958 15.9034 7.91439 18.1064 9.65919 20.4024ZM17.1528 18.8335C20.797 17.3067 28.0708 14.4988 32.4174 16.124C35.0729 17.117 34.7456 18.7231 33.8557 20.6603C32.6959 23.1849 27.5563 29.1152 23.305 28.9784C21.0818 28.9069 19.7412 24.7634 17.0611 23.6312C15.8051 23.1006 13.3624 22.3706 12.4929 22.0399C11.0825 21.5034 16.7021 19.0224 17.1528 18.8335ZM17.8948 31.5C13.5141 26.8656 5.56609 24.057 2.47854 18.8356C1.49265 17.1684 -0.790722 14.3575 0.278824 12.3773C0.850113 11.3196 2.08867 13.7965 2.338 14.5799C3.61399 18.5887 7.86423 21.5749 11.4351 24.4333C13.4257 25.9809 18.5177 28.9125 17.8948 31.5Z" fill="#292828"/>
<path fill-rule="evenodd" clip-rule="evenodd" d="M9.65919 20.4024C10.4258 14.4209 21.957 12.1795 27.7577 10.2935C31.4888 9.0803 42.5659 7.85452 42.9407 4.20399C43.3181 0.529031 24.3154 0.442048 21.5358 0.513217C18.093 0.520539 14.8454 0.914313 11.5529 1.7034C4.33966 3.64258 1.90878 7.86352 4.32459 13.3801C5.42958 15.9034 7.91439 18.1064 9.65919 20.4024ZM17.1528 18.8335C20.797 17.3067 28.0708 14.4988 32.4174 16.124C35.0729 17.117 34.7456 18.7231 33.8557 20.6603C32.6959 23.1849 27.5563 29.1152 23.305 28.9784C21.0818 28.9069 19.7412 24.7634 17.0611 23.6312C15.8051 23.1006 13.3624 22.3706 12.4929 22.0399C11.0825 21.5034 16.7021 19.0224 17.1528 18.8335ZM17.8948 31.5C13.5141 26.8656 5.56609 24.057 2.47854 18.8356C1.49265 17.1684 -0.790722 14.3575 0.278824 12.3773C0.850113 11.3196 2.08867 13.7965 2.338 14.5799C3.61399 18.5887 7.86423 21.5749 11.4351 24.4333C13.4257 25.9809 18.5177 28.9125 17.8948 31.5ZM9.65919 20.4024C10.4258 14.4209 21.957 12.1795 27.7577 10.2935C31.4888 9.0803 42.5659 7.85452 42.9407 4.20399C43.3181 0.529031 24.3154 0.442048 21.5358 0.513217C18.093 0.520539 14.8454 0.914313 11.5529 1.7034C4.33966 3.64258 1.90878 7.86352 4.32459 13.3801C5.42958 15.9034 7.91439 18.1064 9.65919 20.4024ZM17.1528 18.8335C20.797 17.3067 28.0708 14.4988 32.4174 16.124C35.0729 17.117 34.7456 18.7231 33.8557 20.6603C32.6959 23.1849 27.5563 29.1152 23.305 28.9784C21.0818 28.9069 19.7412 24.7634 17.0611 23.6312C15.8051 23.1006 13.3624 22.3706 12.4929 22.0399C11.0825 21.5034 16.7021 19.0224 17.1528 18.8335ZM17.8948 31.5C13.5141 26.8656 5.56609 24.057 2.47854 18.8356C1.49265 17.1684 -0.790722 14.3575 0.278824 12.3773C0.850113 11.3196 2.08867 13.7965 2.338 14.5799C3.61399 18.5887 7.86423 21.5749 11.4351 24.4333C13.4257 25.9809 18.5177 28.9125 17.8948 31.5ZM9.65919 20.4024C10.4258 14.4209 21.957 12.1795 27.7577 10.2935C31.4888 9.0803 42.5659 7.85452 42.9407 4.20399C43.3181 0.529031 24.3154 0.442048 21.5358 0.513217C18.093 0.520539 14.8454 0.914313 11.5529 1.7034C4.33966 3.64258 1.90878 7.86352 4.32459 13.3801C5.42958 15.9034 7.91439 18.1064 9.65919 20.4024ZM17.1528 18.8335C20.797 17.3067 28.0708 14.4988 32.4174 16.124C35.0729 17.117 34.7456 18.7231 33.8557 20.6603C32.6959 23.1849 27.5563 29.1152 23.305 28.9784C21.0818 28.9069 19.7412 24.7634 17.0611 23.6312C15.8051 23.1006 13.3624 22.3706 12.4929 22.0399C11.0825 21.5034 16.7021 19.0224 17.1528 18.8335ZM17.8948 31.5C13.5141 26.8656 5.56609 24.057 2.47854 18.8356C1.49265 17.1684 -0.790722 14.3575 0.278824 12.3773C0.850113 11.3196 2.08867 13.7965 2.338 14.5799C3.61399 18.5887 7.86423 21.5749 11.4351 24.4333C13.4257 25.9809 18.5177 28.9125 17.8948 31.5Z" fill="#292828"/>
<path d="M9.65919 20.4024C10.4258 14.4209 21.957 12.1795 27.7577 10.2935C31.4888 9.0803 42.5659 7.85452 42.9407 4.20399C43.3181 0.529031 24.3154 0.442048 21.5358 0.513217C18.093 0.520539 14.8454 0.914313 11.5529 1.7034C4.33966 3.64258 1.90878 7.86352 4.32459 13.3801C5.42958 15.9034 7.91439 18.1064 9.65919 20.4024ZM17.1528 18.8335C20.797 17.3067 28.0708 14.4988 32.4174 16.124C35.0729 17.117 34.7456 18.7231 33.8557 20.6603C32.6959 23.1849 27.5563 29.1152 23.305 28.9784C21.0818 28.9069 19.7412 24.7634 17.0611 23.6312C15.8051 23.1006 13.3624 22.3706 12.4929 22.0399C11.0825 21.5034 16.7021 19.0224 17.1528 18.8335ZM17.8948 31.5C13.5141 26.8656 5.56609 24.057 2.47854 18.8356C1.49265 17.1684 -0.790722 14.3575 0.278824 12.3773C0.850113 11.3196 2.08867 13.7965 2.338 14.5799C3.61399 18.5887 7.86423 21.5749 11.4351 24.4333C13.4257 25.9809 18.5177 28.9125 17.8948 31.5ZM9.65919 20.4024C10.4258 14.4209 21.957 12.1795 27.7577 10.2935C31.4888 9.0803 42.5659 7.85452 42.9407 4.20399C43.3181 0.529031 24.3154 0.442048 21.5358 0.513217C18.093 0.520539 14.8454 0.914313 11.5529 1.7034C4.33966 3.64258 1.90878 7.86352 4.32459 13.3801C5.42958 15.9034 7.91439 18.1064 9.65919 20.4024ZM17.1528 18.8335C20.797 17.3067 28.0708 14.4988 32.4174 16.124C35.0729 17.117 34.7456 18.7231 33.8557 20.6603C32.6959 23.1849 27.5563 29.1152 23.305 28.9784C21.0818 28.9069 19.7412 24.7634 17.0611 23.6312C15.8051 23.1006 13.3624 22.3706 12.4929 22.0399C11.0825 21.5034 16.7021 19.0224 17.1528 18.8335ZM17.8948 31.5C13.5141 26.8656 5.56609 24.057 2.47854 18.8356C1.49265 17.1684 -0.790722 14.3575 0.278824 12.3773C0.850113 11.3196 2.08867 13.7965 2.338 14.5799C3.61399 18.5887 7.86423 21.5749 11.4351 24.4333C13.4257 25.9809 18.5177 28.9125 17.8948 31.5ZM9.65919 20.4024C10.4258 14.4209 21.957 12.1795 27.7577 10.2935C31.4888 9.0803 42.5659 7.85452 42.9407 4.20399C43.3181 0.529031 24.3154 0.442048 21.5358 0.513217C18.093 0.520539 14.8454 0.914313 11.5529 1.7034C4.33966 3.64258 1.90878 7.86352 4.32459 13.3801C5.42958 15.9034 7.91439 18.1064 9.65919 20.4024ZM17.1528 18.8335C20.797 17.3067 28.0708 14.4988 32.4174 16.124C35.0729 17.117 34.7456 18.7231 33.8557 20.6603C32.6959 23.1849 27.5563 29.1152 23.305 28.9784C21.0818 28.9069 19.7412 24.7634 17.0611 23.6312C15.8051 23.1006 13.3624 22.3706 12.4929 22.0399C11.0825 21.5034 16.7021 19.0224 17.1528 18.8335ZM17.8948 31.5C13.5141 26.8656 5.56609 24.057 2.47854 18.8356C1.49265 17.1684 -0.790722 14.3575 0.278824 12.3773C0.850113 11.3196 2.08867 13.7965 2.338 14.5799C3.61399 18.5887 7.86423 21.5749 11.4351 24.4333C13.4257 25.9809 18.5177 28.9125 17.8948 31.5Z" fill="#292828"/>
<path d="M8.64137 15.9505C12.8188 11.042 30.6035 8.78162 35.9951 5.61159C39.2794 3.68058 30.2458 2.87361 26.5703 2.68498C16.1136 2.14834 0.584114 6.23558 8.64137 15.9505Z" fill="white"/>
<path d="M31.2215 21.1812C33.2882 17.6658 28.7767 15.9675 25.3563 17.347C21.9358 18.7266 15.4208 21.7152 17.2026 22.243C19.1986 23.0087 20.3581 23.5515 21.6194 25.0164C22.416 26.0668 23.1579 27.3511 24.9921 26.7294C27.7442 25.5238 29.9143 23.4044 31.2215 21.1812Z" fill="white"/>
<path d="M43.8649 21.6232V6.41708H48.5219V21.6232H43.8649Z" stroke="#292828"/>
<path d="M55.2844 21.8281C54.3914 21.8281 53.5809 21.6505 52.8528 21.2953C52.1385 20.9264 51.5752 20.3594 51.1631 19.5944C50.751 18.8156 50.5449 17.8183 50.5449 16.6023V10.4133H55.202V15.8031C55.202 16.5955 55.3325 17.1488 55.5935 17.463C55.8545 17.7773 56.2117 17.9344 56.665 17.9344C56.9398 17.9344 57.1939 17.8661 57.4275 17.7295C57.6747 17.5792 57.8739 17.3401 58.0251 17.0122C58.1762 16.6706 58.2517 16.2266 58.2517 15.6801V10.4133H62.9088V21.6232H58.4784V18.3852L59.3645 19.2665C58.9661 20.1408 58.396 20.7898 57.6541 21.2133C56.926 21.6232 56.1361 21.8281 55.2844 21.8281Z" stroke="#292828"/>
<path d="M71.1976 21.8281C69.8238 21.8281 68.6218 21.5754 67.5914 21.0699C66.5749 20.5644 65.7849 19.8744 65.2217 19C64.6585 18.112 64.3768 17.1147 64.3768 16.008C64.3768 14.874 64.6516 13.8699 65.2011 12.9955C65.7643 12.1211 66.5268 11.438 67.4884 10.9461C68.4638 10.4543 69.5559 10.2084 70.7648 10.2084C71.8776 10.2084 72.901 10.427 73.8352 10.8642C74.7831 11.3013 75.5387 11.9503 76.1019 12.811C76.6789 13.6718 76.9674 14.7374 76.9674 16.008C76.9674 16.172 76.9605 16.3564 76.9468 16.5613C76.933 16.7526 76.9193 16.9302 76.9056 17.0942H68.2302V14.8604H74.4328L72.6812 15.4547C72.6812 15.0175 72.5988 14.6486 72.434 14.348C72.2828 14.0338 72.0699 13.7947 71.7952 13.6308C71.5204 13.4532 71.1907 13.3644 70.806 13.3644C70.4214 13.3644 70.0848 13.4532 69.7963 13.6308C69.5216 13.7947 69.3086 14.0338 69.1575 14.348C69.0064 14.6486 68.9309 15.0175 68.9309 15.4547V16.1515C68.9309 16.6296 69.027 17.0395 69.2194 17.3811C69.4117 17.7226 69.6864 17.9822 70.0436 18.1598C70.4008 18.3238 70.8335 18.4057 71.3418 18.4057C71.8638 18.4057 72.2897 18.3374 72.6194 18.2008C72.9629 18.0642 73.32 17.8592 73.6909 17.586L76.1225 20.0247C75.573 20.6122 74.893 21.0631 74.0825 21.3773C73.2857 21.6779 72.3241 21.8281 71.1976 21.8281Z" stroke="#292828"/>
<path d="M84.7592 21.6232V7.27781H92.466C94.458 7.27781 95.9279 7.63303 96.8758 8.34347C97.8237 9.04024 98.2976 9.93512 98.2976 11.0281C98.2976 11.7522 98.0916 12.4012 97.6794 12.975C97.281 13.5351 96.6972 13.9792 95.9279 14.3071C95.1586 14.6349 94.2107 14.7989 93.0842 14.7989L93.4963 13.6922C94.6228 13.6922 95.5913 13.8494 96.4018 14.1636C97.2261 14.4778 97.858 14.9355 98.2976 15.5367C98.751 16.1241 98.9776 16.8346 98.9776 17.668C98.9776 18.9112 98.4556 19.8813 97.4115 20.578C96.3812 21.2748 94.8701 21.6232 92.8781 21.6232H84.7592ZM89.5399 18.2418H92.466C93.0018 18.2418 93.4002 18.1462 93.6612 17.9549C93.9359 17.7636 94.0733 17.4835 94.0733 17.1147C94.0733 16.7458 93.9359 16.4657 93.6612 16.2744C93.4002 16.0831 93.0018 15.9875 92.466 15.9875H89.2102V12.7905H91.8066C92.3561 12.7905 92.7545 12.7017 93.0018 12.5241C93.2628 12.3329 93.3933 12.0664 93.3933 11.7249C93.3933 11.3697 93.2628 11.1032 93.0018 10.9256C92.7545 10.748 92.3561 10.6592 91.8066 10.6592H89.5399V18.2418Z" stroke="#292828"/>
<path d="M105.251 21.8281C104.358 21.8281 103.548 21.6505 102.819 21.2953C102.105 20.9264 101.542 20.3594 101.13 19.5944C100.718 18.8156 100.512 17.8183 100.512 16.6023V10.4133H105.169V15.8031C105.169 16.5955 105.299 17.1488 105.56 17.463C105.821 17.7773 106.178 17.9344 106.632 17.9344C106.906 17.9344 107.161 17.8661 107.394 17.7295C107.641 17.5792 107.841 17.3401 107.992 17.0122C108.143 16.6706 108.218 16.2266 108.218 15.6801V10.4133H112.875V21.6232H108.445V18.3852L109.331 19.2665C108.933 20.1408 108.363 20.7898 107.621 21.2133C106.893 21.6232 106.103 21.8281 105.251 21.8281Z" stroke="#292828"/>
<path d="M120.381 21.8281C118.829 21.8281 117.62 21.4593 116.754 20.7215C115.889 19.9701 115.456 18.8224 115.456 17.2786V7.89261H120.113V17.2376C120.113 17.5792 120.203 17.8456 120.381 18.0369C120.573 18.2281 120.807 18.3238 121.082 18.3238C121.48 18.3238 121.83 18.2213 122.133 18.0164L123.245 21.2338C122.888 21.4388 122.456 21.589 121.947 21.6847C121.453 21.7803 120.931 21.8281 120.381 21.8281ZM113.911 14.4095V11.0281H122.421V14.4095H113.911Z" stroke="#292828"/>
<path d="M129.658 21.8281C128.106 21.8281 126.897 21.4593 126.031 20.7215C125.166 19.9701 124.733 18.8224 124.733 17.2786V7.89261H129.39V17.2376C129.39 17.5792 129.479 17.8456 129.658 18.0369C129.85 18.2281 130.084 18.3238 130.359 18.3238C130.757 18.3238 131.107 18.2213 131.41 18.0164L132.522 21.2338C132.165 21.4388 131.732 21.589 131.224 21.6847C130.73 21.7803 130.208 21.8281 129.658 21.8281ZM123.188 14.4095V11.0281H131.698V14.4095H123.188Z" stroke="#292828"/>
<path d="M139.617 21.8281C138.244 21.8281 137.042 21.5754 136.011 21.0699C134.995 20.5644 134.205 19.8744 133.642 19C133.078 18.112 132.797 17.1147 132.797 16.008C132.797 14.874 133.071 13.8699 133.621 12.9955C134.184 12.1211 134.947 11.438 135.908 10.9461C136.884 10.4543 137.976 10.2084 139.185 10.2084C140.297 10.2084 141.321 10.427 142.255 10.8642C143.203 11.3013 143.959 11.9503 144.522 12.811C145.099 13.6718 145.387 14.7374 145.387 16.008C145.387 16.172 145.38 16.3564 145.367 16.5613C145.353 16.7526 145.339 16.9302 145.325 17.0942H136.65V14.8604H142.853L141.101 15.4547C141.101 15.0175 141.019 14.6486 140.854 14.348C140.703 14.0338 140.49 13.7947 140.215 13.6308C139.94 13.4532 139.611 13.3644 139.226 13.3644C138.841 13.3644 138.505 13.4532 138.216 13.6308C137.941 13.7947 137.729 14.0338 137.577 14.348C137.426 14.6486 137.351 15.0175 137.351 15.4547V16.1515C137.351 16.6296 137.447 17.0395 137.639 17.3811C137.832 17.7226 138.106 17.9822 138.463 18.1598C138.821 18.3238 139.253 18.4057 139.762 18.4057C140.284 18.4057 140.71 18.3374 141.039 18.2008C141.383 18.0642 141.74 17.8592 142.111 17.586L144.542 20.0247C143.993 20.6122 143.313 21.0631 142.502 21.3773C141.706 21.6779 140.744 21.8281 139.617 21.8281Z" stroke="#292828"/>
<path d="M146.857 21.6232V10.4133H151.287V13.7947L150.566 12.8315C150.91 11.9571 151.459 11.3013 152.215 10.8642C152.97 10.427 153.877 10.2084 154.935 10.2084V14.3071C154.729 14.2797 154.543 14.2592 154.378 14.2456C154.227 14.2319 154.069 14.2251 153.904 14.2251C153.204 14.2251 152.627 14.4095 152.173 14.7784C151.734 15.1336 151.514 15.7553 151.514 16.6433V21.6232H146.857Z" stroke="#292828"/>
<path d="M157.072 21.6232V10.9666C157.072 9.51842 157.504 8.36396 158.37 7.50324C159.249 6.64251 160.492 6.21215 162.1 6.21215C162.594 6.21215 163.089 6.25997 163.583 6.3556C164.092 6.43758 164.517 6.5742 164.861 6.76547L163.748 9.98294C163.597 9.91463 163.432 9.85315 163.254 9.7985C163.075 9.74385 162.889 9.71653 162.697 9.71653C162.367 9.71653 162.1 9.81899 161.893 10.0239C161.687 10.2289 161.584 10.5568 161.584 11.0076V11.5404L161.729 13.4463V21.6232H157.072ZM155.526 14.4095V11.0281H164.037V14.4095H155.526ZM165.85 21.6232V6.41708H170.507V21.6232H165.85Z" stroke="#292828"/>
<path d="M172.575 21.6232V10.4133H177.232V21.6232H172.575ZM174.903 9.51159C174.052 9.51159 173.371 9.28616 172.863 8.83531C172.355 8.38445 172.101 7.8243 172.101 7.15485C172.101 6.4854 172.355 5.92524 172.863 5.47439C173.371 5.02353 174.052 4.7981 174.903 4.7981C175.755 4.7981 176.435 5.00987 176.943 5.4334C177.452 5.85693 177.706 6.40342 177.706 7.07287C177.706 7.78331 177.452 8.37079 176.943 8.83531C176.435 9.28616 175.755 9.51159 174.903 9.51159Z" stroke="#292828"/>
<path d="M185.519 21.8281C184.145 21.8281 182.943 21.5754 181.913 21.0699C180.896 20.5644 180.106 19.8744 179.543 19C178.98 18.112 178.698 17.1147 178.698 16.008C178.698 14.874 178.973 13.8699 179.523 12.9955C180.086 12.1211 180.848 11.438 181.81 10.9461C182.785 10.4543 183.877 10.2084 185.086 10.2084C186.199 10.2084 187.223 10.427 188.157 10.8642C189.105 11.3013 189.86 11.9503 190.423 12.811C191 13.6718 191.289 14.7374 191.289 16.008C191.289 16.172 191.282 16.3564 191.268 16.5613C191.255 16.7526 191.241 16.9302 191.227 17.0942H182.552V14.8604H188.754L187.003 15.4547C187.003 15.0175 186.92 14.6486 186.755 14.348C186.604 14.0338 186.391 13.7947 186.117 13.6308C185.842 13.4532 185.512 13.3644 185.128 13.3644C184.743 13.3644 184.406 13.4532 184.118 13.6308C183.843 13.7947 183.63 14.0338 183.479 14.348C183.328 14.6486 183.252 15.0175 183.252 15.4547V16.1515C183.252 16.6296 183.349 17.0395 183.541 17.3811C183.733 17.7226 184.008 17.9822 184.365 18.1598C184.722 18.3238 185.155 18.4057 185.663 18.4057C186.185 18.4057 186.611 18.3374 186.941 18.2008C187.284 18.0642 187.642 17.8592 188.012 17.586L190.444 20.0247C189.895 20.6122 189.215 21.0631 188.404 21.3773C187.607 21.6779 186.646 21.8281 185.519 21.8281Z" stroke="#292828"/>
<path d="M197.168 21.8281C196.207 21.8281 195.259 21.7257 194.325 21.5207C193.391 21.3158 192.635 21.0494 192.058 20.7215L193.336 17.668C193.871 17.9822 194.49 18.2281 195.19 18.4057C195.904 18.5833 196.598 18.6722 197.271 18.6722C197.835 18.6722 198.212 18.6243 198.405 18.5287C198.611 18.4331 198.714 18.3033 198.714 18.1393C198.714 17.9754 198.597 17.8592 198.364 17.7909C198.13 17.709 197.821 17.6475 197.436 17.6065C197.052 17.5655 196.626 17.5177 196.159 17.463C195.705 17.3947 195.245 17.2991 194.778 17.1761C194.311 17.0532 193.885 16.8687 193.5 16.6228C193.116 16.3769 192.807 16.049 192.573 15.6391C192.34 15.2156 192.223 14.6828 192.223 14.0406C192.223 13.3302 192.436 12.6881 192.862 12.1143C193.301 11.5404 193.947 11.0828 194.799 10.7412C195.664 10.386 196.729 10.2084 197.993 10.2084C198.817 10.2084 199.641 10.2835 200.465 10.4338C201.29 10.5841 201.997 10.8163 202.588 11.1306L201.31 14.1841C200.733 13.8699 200.163 13.6581 199.6 13.5488C199.05 13.4258 198.535 13.3644 198.054 13.3644C197.464 13.3644 197.058 13.419 196.839 13.5283C196.633 13.6376 196.53 13.7606 196.53 13.8972C196.53 14.0611 196.646 14.1841 196.88 14.2661C197.113 14.348 197.423 14.4095 197.807 14.4505C198.192 14.4915 198.611 14.5461 199.064 14.6145C199.531 14.6691 199.991 14.7647 200.445 14.9014C200.912 15.0243 201.338 15.2088 201.722 15.4547C202.107 15.7006 202.416 16.0353 202.65 16.4589C202.883 16.8687 203 17.3947 203 18.0369C203 18.7063 202.787 19.3348 202.361 19.9223C201.935 20.4961 201.29 20.9606 200.424 21.3158C199.559 21.6574 198.473 21.8281 197.168 21.8281Z" stroke="#292828"/>
<path fill-rule="evenodd" clip-rule="evenodd" d="M9.65919 20.4024C10.4258 14.4209 21.957 12.1795 27.7577 10.2935C31.4888 9.0803 42.5659 7.85452 42.9407 4.20399C43.3181 0.529031 24.3154 0.442048 21.5358 0.513217C18.093 0.520539 14.8454 0.914313 11.5529 1.7034C4.33966 3.64258 1.90878 7.86352 4.32459 13.3801C5.42958 15.9034 7.91439 18.1064 9.65919 20.4024ZM17.1528 18.8335C20.797 17.3067 28.0708 14.4988 32.4174 16.124C35.0729 17.117 34.7456 18.7231 33.8557 20.6603C32.6959 23.1849 27.5563 29.1152 23.305 28.9784C21.0818 28.9069 19.7412 24.7634 17.0611 23.6312C15.8051 23.1006 13.3624 22.3706 12.4929 22.0399C11.0825 21.5034 16.7021 19.0224 17.1528 18.8335ZM17.8948 31.5C13.5141 26.8656 5.56609 24.057 2.47854 18.8356C1.49265 17.1684 -0.790722 14.3575 0.278824 12.3773C0.850113 11.3196 2.08867 13.7965 2.338 14.5799C3.61399 18.5887 7.86423 21.5749 11.4351 24.4333C13.4257 25.9809 18.5177 28.9125 17.8948 31.5ZM9.65919 20.4024C10.4258 14.4209 21.957 12.1795 27.7577 10.2935C31.4888 9.0803 42.5659 7.85452 42.9407 4.20399C43.3181 0.529031 24.3154 0.442048 21.5358 0.513217C18.093 0.520539 14.8454 0.914313 11.5529 1.7034C4.33966 3.64258 1.90878 7.86352 4.32459 13.3801C5.42958 15.9034 7.91439 18.1064 9.65919 20.4024ZM17.1528 18.8335C20.797 17.3067 28.0708 14.4988 32.4174 16.124C35.0729 17.117 34.7456 18.7231 33.8557 20.6603C32.6959 23.1849 27.5563 29.1152 23.305 28.9784C21.0818 28.9069 19.7412 24.7634 17.0611 23.6312C15.8051 23.1006 13.3624 22.3706 12.4929 22.0399C11.0825 21.5034 16.7021 19.0224 17.1528 18.8335ZM17.8948 31.5C13.5141 26.8656 5.56609 24.057 2.47854 18.8356C1.49265 17.1684 -0.790722 14.3575 0.278824 12.3773C0.850113 11.3196 2.08867 13.7965 2.338 14.5799C3.61399 18.5887 7.86423 21.5749 11.4351 24.4333C13.4257 25.9809 18.5177 28.9125 17.8948 31.5ZM9.65919 20.4024C10.4258 14.4209 21.957 12.1795 27.7577 10.2935C31.4888 9.0803 42.5659 7.85452 42.9407 4.20399C43.3181 0.529031 24.3154 0.442048 21.5358 0.513217C18.093 0.520539 14.8454 0.914313 11.5529 1.7034C4.33966 3.64258 1.90878 7.86352 4.32459 13.3801C5.42958 15.9034 7.91439 18.1064 9.65919 20.4024ZM17.1528 18.8335C20.797 17.3067 28.0708 14.4988 32.4174 16.124C35.0729 17.117 34.7456 18.7231 33.8557 20.6603C32.6959 23.1849 27.5563 29.1152 23.305 28.9784C21.0818 28.9069 19.7412 24.7634 17.0611 23.6312C15.8051 23.1006 13.3624 22.3706 12.4929 22.0399C11.0825 21.5034 16.7021 19.0224 17.1528 18.8335ZM17.8948 31.5C13.5141 26.8656 5.56609 24.057 2.47854 18.8356C1.49265 17.1684 -0.790722 14.3575 0.278824 12.3773C0.850113 11.3196 2.08867 13.7965 2.338 14.5799C3.61399 18.5887 7.86423 21.5749 11.4351 24.4333C13.4257 25.9809 18.5177 28.9125 17.8948 31.5Z" stroke="#292828"/>
<path fill-rule="evenodd" clip-rule="evenodd" d="M9.65919 20.4024C10.4258 14.4209 21.957 12.1795 27.7577 10.2935C31.4888 9.0803 42.5659 7.85452 42.9407 4.20399C43.3181 0.529031 24.3154 0.442048 21.5358 0.513217C18.093 0.520539 14.8454 0.914313 11.5529 1.7034C4.33966 3.64258 1.90878 7.86352 4.32459 13.3801C5.42958 15.9034 7.91439 18.1064 9.65919 20.4024ZM17.1528 18.8335C20.797 17.3067 28.0708 14.4988 32.4174 16.124C35.0729 17.117 34.7456 18.7231 33.8557 20.6603C32.6959 23.1849 27.5563 29.1152 23.305 28.9784C21.0818 28.9069 19.7412 24.7634 17.0611 23.6312C15.8051 23.1006 13.3624 22.3706 12.4929 22.0399C11.0825 21.5034 16.7021 19.0224 17.1528 18.8335ZM17.8948 31.5C13.5141 26.8656 5.56609 24.057 2.47854 18.8356C1.49265 17.1684 -0.790722 14.3575 0.278824 12.3773C0.850113 11.3196 2.08867 13.7965 2.338 14.5799C3.61399 18.5887 7.86423 21.5749 11.4351 24.4333C13.4257 25.9809 18.5177 28.9125 17.8948 31.5ZM9.65919 20.4024C10.4258 14.4209 21.957 12.1795 27.7577 10.2935C31.4888 9.0803 42.5659 7.85452 42.9407 4.20399C43.3181 0.529031 24.3154 0.442048 21.5358 0.513217C18.093 0.520539 14.8454 0.914313 11.5529 1.7034C4.33966 3.64258 1.90878 7.86352 4.32459 13.3801C5.42958 15.9034 7.91439 18.1064 9.65919 20.4024ZM17.1528 18.8335C20.797 17.3067 28.0708 14.4988 32.4174 16.124C35.0729 17.117 34.7456 18.7231 33.8557 20.6603C32.6959 23.1849 27.5563 29.1152 23.305 28.9784C21.0818 28.9069 19.7412 24.7634 17.0611 23.6312C15.8051 23.1006 13.3624 22.3706 12.4929 22.0399C11.0825 21.5034 16.7021 19.0224 17.1528 18.8335ZM17.8948 31.5C13.5141 26.8656 5.56609 24.057 2.47854 18.8356C1.49265 17.1684 -0.790722 14.3575 0.278824 12.3773C0.850113 11.3196 2.08867 13.7965 2.338 14.5799C3.61399 18.5887 7.86423 21.5749 11.4351 24.4333C13.4257 25.9809 18.5177 28.9125 17.8948 31.5ZM9.65919 20.4024C10.4258 14.4209 21.957 12.1795 27.7577 10.2935C31.4888 9.0803 42.5659 7.85452 42.9407 4.20399C43.3181 0.529031 24.3154 0.442048 21.5358 0.513217C18.093 0.520539 14.8454 0.914313 11.5529 1.7034C4.33966 3.64258 1.90878 7.86352 4.32459 13.3801C5.42958 15.9034 7.91439 18.1064 9.65919 20.4024ZM17.1528 18.8335C20.797 17.3067 28.0708 14.4988 32.4174 16.124C35.0729 17.117 34.7456 18.7231 33.8557 20.6603C32.6959 23.1849 27.5563 29.1152 23.305 28.9784C21.0818 28.9069 19.7412 24.7634 17.0611 23.6312C15.8051 23.1006 13.3624 22.3706 12.4929 22.0399C11.0825 21.5034 16.7021 19.0224 17.1528 18.8335ZM17.8948 31.5C13.5141 26.8656 5.56609 24.057 2.47854 18.8356C1.49265 17.1684 -0.790722 14.3575 0.278824 12.3773C0.850113 11.3196 2.08867 13.7965 2.338 14.5799C3.61399 18.5887 7.86423 21.5749 11.4351 24.4333C13.4257 25.9809 18.5177 28.9125 17.8948 31.5Z" stroke="#292828"/>
<path d="M9.65919 20.4024C10.4258 14.4209 21.957 12.1795 27.7577 10.2935C31.4888 9.0803 42.5659 7.85452 42.9407 4.20399C43.3181 0.529031 24.3154 0.442048 21.5358 0.513217C18.093 0.520539 14.8454 0.914313 11.5529 1.7034C4.33966 3.64258 1.90878 7.86352 4.32459 13.3801C5.42958 15.9034 7.91439 18.1064 9.65919 20.4024ZM17.1528 18.8335C20.797 17.3067 28.0708 14.4988 32.4174 16.124C35.0729 17.117 34.7456 18.7231 33.8557 20.6603C32.6959 23.1849 27.5563 29.1152 23.305 28.9784C21.0818 28.9069 19.7412 24.7634 17.0611 23.6312C15.8051 23.1006 13.3624 22.3706 12.4929 22.0399C11.0825 21.5034 16.7021 19.0224 17.1528 18.8335ZM17.8948 31.5C13.5141 26.8656 5.56609 24.057 2.47854 18.8356C1.49265 17.1684 -0.790722 14.3575 0.278824 12.3773C0.850113 11.3196 2.08867 13.7965 2.338 14.5799C3.61399 18.5887 7.86423 21.5749 11.4351 24.4333C13.4257 25.9809 18.5177 28.9125 17.8948 31.5ZM9.65919 20.4024C10.4258 14.4209 21.957 12.1795 27.7577 10.2935C31.4888 9.0803 42.5659 7.85452 42.9407 4.20399C43.3181 0.529031 24.3154 0.442048 21.5358 0.513217C18.093 0.520539 14.8454 0.914313 11.5529 1.7034C4.33966 3.64258 1.90878 7.86352 4.32459 13.3801C5.42958 15.9034 7.91439 18.1064 9.65919 20.4024ZM17.1528 18.8335C20.797 17.3067 28.0708 14.4988 32.4174 16.124C35.0729 17.117 34.7456 18.7231 33.8557 20.6603C32.6959 23.1849 27.5563 29.1152 23.305 28.9784C21.0818 28.9069 19.7412 24.7634 17.0611 23.6312C15.8051 23.1006 13.3624 22.3706 12.4929 22.0399C11.0825 21.5034 16.7021 19.0224 17.1528 18.8335ZM17.8948 31.5C13.5141 26.8656 5.56609 24.057 2.47854 18.8356C1.49265 17.1684 -0.790722 14.3575 0.278824 12.3773C0.850113 11.3196 2.08867 13.7965 2.338 14.5799C3.61399 18.5887 7.86423 21.5749 11.4351 24.4333C13.4257 25.9809 18.5177 28.9125 17.8948 31.5ZM9.65919 20.4024C10.4258 14.4209 21.957 12.1795 27.7577 10.2935C31.4888 9.0803 42.5659 7.85452 42.9407 4.20399C43.3181 0.529031 24.3154 0.442048 21.5358 0.513217C18.093 0.520539 14.8454 0.914313 11.5529 1.7034C4.33966 3.64258 1.90878 7.86352 4.32459 13.3801C5.42958 15.9034 7.91439 18.1064 9.65919 20.4024ZM17.1528 18.8335C20.797 17.3067 28.0708 14.4988 32.4174 16.124C35.0729 17.117 34.7456 18.7231 33.8557 20.6603C32.6959 23.1849 27.5563 29.1152 23.305 28.9784C21.0818 28.9069 19.7412 24.7634 17.0611 23.6312C15.8051 23.1006 13.3624 22.3706 12.4929 22.0399C11.0825 21.5034 16.7021 19.0224 17.1528 18.8335ZM17.8948 31.5C13.5141 26.8656 5.56609 24.057 2.47854 18.8356C1.49265 17.1684 -0.790722 14.3575 0.278824 12.3773C0.850113 11.3196 2.08867 13.7965 2.338 14.5799C3.61399 18.5887 7.86423 21.5749 11.4351 24.4333C13.4257 25.9809 18.5177 28.9125 17.8948 31.5Z" stroke="#292828"/>
<path d="M8.64137 15.9505C12.8188 11.042 30.6035 8.78162 35.9951 5.61159C39.2794 3.68058 30.2458 2.87361 26.5703 2.68498C16.1136 2.14834 0.584114 6.23558 8.64137 15.9505Z" stroke="#292828"/>
<path d="M31.2215 21.1812C33.2882 17.6658 28.7767 15.9675 25.3563 17.347C21.9358 18.7266 15.4208 21.7152 17.2026 22.243C19.1986 23.0087 20.3581 23.5515 21.6194 25.0164C22.416 26.0668 23.1579 27.3511 24.9921 26.7294C27.7442 25.5238 29.9143 23.4044 31.2215 21.1812Z" stroke="#292828"/>
</svg>
